<svg xmlns="http://www.w3.org/2000/svg" viewBox="0 0 512 512"><defs><style>.cls-1{fill:none;}.cls-2{fill:#fff;}.cls-3{fill:#1c1c1c;}</style></defs><title>pointer</title><g id="Layer_2" data-name="Layer 2"><g id="Layer_2-2" data-name="Layer 2"><rect class="cls-1" width="512" height="512"/><path id="path4109" class="cls-2" d="M116.54,0c-.1,6.74-.13,13.48-.18,20.23l0,2.84-2.84.11c-6.73.22-13.49.3-20.27.34-.37,68.55-.16,137.07-.19,205.6v3l-3,0c-5.69.06-11.41.11-17.13.26l-3.1.08,0-3.1c.12-6.7.07-13.39-.07-20.05-23.25-.19-46.53-.31-69.78.07,0,23.17,0,46.32,0,69.49,6.74.12,13.56.44,20.39,0l3.73-.26-.56,3.69c-1,6.69-.33,13.46-.3,20.16,6.43.34,12.91.4,19.41.41h2.77l.22,2.77c1.08,14.32.55,28.7.79,43.08,6.68.28,13.4.38,20.12.45l2.91,0,0,2.91c.11,14.37.07,28.72.3,43.09,6.74.1,13.53.44,20.35,0l3.43-.18-.26,3.39c-1.13,14.36-.15,28.84-.26,43.24q9.86.19,19.71.26h3l0,2.95c.29,22.18.14,44.38.45,66.57,38.29.55,76.61.6,114.91.56,39.22-.06,78.43.27,117.65-.67-.63-22.13,1.35-44.24.45-66.35l-.12-3.17,3.18.07c6.58.19,13.17.06,19.71-.15.24-22,.27-44,.3-66V373l2.69-.26a196.64,196.64,0,0,1,20.2-.64c.16-24.64-.3-49.27.44-73.92V298c-.82-29.6-.24-59.24-.59-88.86-6.65.06-13.27,0-19.87-.11l-2.87,0-.08-2.87c-.13-6.53-.21-13.1-.11-19.68-6.81-.2-13.59,0-20.35-.37l-2.61-.15-.19-2.61c-.48-6.8-.24-13.66-.33-20.54-14.45-.05-28.89.06-43.31-.15l-2.91,0,0-2.92c-.11-6.52-.19-13-.11-19.6-22.17-1.17-44.39-.41-66.57-.67l-2.84,0-.11-2.8q-.45-10.06-.41-20.23c-14.42-.07-28.84,0-43.24-.26l-2.87-.08,0-2.87c-.28-29.84-.12-59.69-.22-89.53-3.85,0-7.69-.07-11.54-.08-2.87,0-5.72,0-8.59,0l-3.06,0,0-3.07A186.61,186.61,0,0,0,162.28,0C147,.05,131.79.1,116.54,0Z"/><path id="path3016" class="cls-3" d="M116.53,0c15.25.09,30.49.06,45.74,0a200.66,200.66,0,0,1,.55,23c-15.5.15-31,0-46.49.15C116.39,15.44,116.41,7.72,116.53,0Z"/><path id="path3018" class="cls-3" d="M93.2,23.52c7.71,0,15.43,0,23.13-.36q0,127.89.06,255.78-11.64.27-23.29,0c-.15-7.63-.15-15.27,0-22.92-7.72-.3-15.44-.25-23.16-.22-.25-7.8-.31-15.61,0-23.4,7.71-.29,15.43-.2,23.15-.32,0-69.52-.19-139,.18-208.57Z"/><path id="path3020" class="cls-3" d="M162.91,23.55c7.7-.1,15.39-.06,23.08,0,.1,30.82-.11,61.66.22,92.48,15.38.41,30.77.18,46.15.26,0,7.69,0,15.38.45,23.07,23.14.37,46.34-.55,69.47.67q-.13,11.26.12,22.54c15.41.28,30.84.1,46.27.16.1,7.72-.39,15.49.43,23.18,7.66.67,15.35.27,23,.49-.12,7.53-.06,15.06.13,22.58,7.59.14,15.19.2,22.81.14.35,29.64-.23,59.29.59,88.92-.74,24.67-.3,49.34-.46,74a174.66,174.66,0,0,0-22.88.85c0,22.92,0,45.86-.3,68.79-7.61.24-15.25.49-22.85.12-.86-23.33-.46-46.69-.24-70q11.51.12,23,0,0-81.33.09-162.62c-7.66-.11-15.33-.09-23,0-.43-7.54.06-15.13-.55-22.66-7.6-1.46-15.37-.57-23-.59-.17,23.25.27,46.5-.2,69.77q-11.37,0-22.77,0c-.52-31,0-62-.18-93.06-15.55-.09-31.09,0-46.62,0,0,23.24.23,46.48,0,69.7q-11.57.24-23.09,0c-.15-31-.18-62,.19-93-15.56-.08-31.11-.09-46.67.08-.16,31,.12,61.92,0,92.88q-11.67.33-23.35,0,0-104.41.17-208.86Z"/><path id="path3026" class="cls-3" d="M0,209.38c23.25-.39,46.52-.27,69.77-.08.16,7.71.3,15.4.07,23.11-15.42.35-30.85.08-46.26.2-.57,15.36.82,30.75-.23,46.09-7.76.9-15.59.3-23.37.15C0,255.69.06,232.54,0,209.38Z"/><path id="path3030" class="cls-3" d="M24,279.22c7.47-1.15,15.06-.71,22.58-.5.17,7.75.18,15.51.11,23.28,7.76,0,15.51,0,23.28.13.18,15.46,0,30.92.09,46.37,7.66,0,15.34,0,23,.08-.1,15.5,1,31.12-.58,46.55-7.56.68-15.13.15-22.67,0-.24-15.32-.21-30.65-.34-46-7.68,0-15.36-.18-23-.49-.26-15.27.49-30.56-.9-45.78-7.42,0-14.86-.1-22.26-.49,0-7.73-1.05-15.59.71-23.21Z"/><path id="path3038" class="cls-3" d="M93.56,395.23c7.59-.6,15.22-.24,22.83-.19.21,15.43,0,30.85.06,46.26,7.74,0,15.51,0,23.26.24.15,15.43-.14,30.87.09,46.3q92.76.23,185.52.09c.24-15.44-.06-30.89.11-46.34,7.91-.11,15.83-.21,23.74.24,1.26,23.14-1,46.31-.36,69.49-39.21.94-78.43.59-117.65.65-38.3,0-76.61,0-114.9-.55-.31-23.16-.15-46.33-.49-69.47-7.56,0-15.12-.14-22.67-.29.12-15.47-1.12-31.05.46-46.43Z"/></g></g></svg>