<svg xmlns="http://www.w3.org/2000/svg" viewBox="0 0 512 120"><defs><style>.cls-1{fill:red;}.cls-2{fill:none;stroke:#000;stroke-miterlimit:10;stroke-width:4px;}</style></defs><title>trAsset 1</title><g id="Layer_2" data-name="Layer 2"><g id="Layer_1-2" data-name="Layer 1"><rect class="cls-1" width="512" height="120"/><line class="cls-2" x1="73.83" y1="60" x2="438.17" y2="60"/><path d="M77.05,39.77c-5,8.44-12.78,15.07-21,20.23a64.61,64.61,0,0,1,21,20.23h5A70,70,0,0,0,62.71,60,71.1,71.1,0,0,0,82.12,39.77Z"/><path d="M89.08,39.77c-5,8.44-12.77,15.07-21,20.23a64.48,64.48,0,0,1,21,20.23h5A70,70,0,0,0,74.75,60,71.38,71.38,0,0,0,94.16,39.77Z"/><path d="M435,39.77C440,48.21,447.73,54.84,456,60A64.61,64.61,0,0,0,435,80.23h-5A70,70,0,0,1,449.29,60a71.1,71.1,0,0,1-19.41-20.23Z"/><path d="M422.92,39.77c5,8.44,12.77,15.07,21,20.23a64.48,64.48,0,0,0-21,20.23h-5A70,70,0,0,1,437.25,60a71.38,71.38,0,0,1-19.41-20.23Z"/></g></g></svg>