<svg xmlns="http://www.w3.org/2000/svg" viewBox="0 0 512 60"><defs><style>.cls-1{fill:red;}.cls-2{fill:none;stroke:#000;stroke-miterlimit:10;stroke-width:4px;}</style></defs><title>Asset 1</title><g id="Layer_2" data-name="Layer 2"><g id="Layer_1-2" data-name="Layer 1"><rect class="cls-1" width="512" height="60"/><line class="cls-2" x1="73.83" y1="30" x2="438.17" y2="30"/><path d="M77.05,9.77c-5,8.44-12.78,15.07-21,20.23a64.61,64.61,0,0,1,21,20.23h5A70,70,0,0,0,62.71,30,71.1,71.1,0,0,0,82.12,9.77Z"/><path d="M89.08,9.77c-5,8.44-12.77,15.07-21,20.23a64.48,64.48,0,0,1,21,20.23h5A70,70,0,0,0,74.75,30,71.38,71.38,0,0,0,94.16,9.77Z"/><path d="M435,9.77C440,18.21,447.73,24.84,456,30A64.61,64.61,0,0,0,435,50.23h-5A70,70,0,0,1,449.29,30,71.1,71.1,0,0,1,429.88,9.77Z"/><path d="M422.92,9.77c5,8.44,12.77,15.07,21,20.23a64.48,64.48,0,0,0-21,20.23h-5A70,70,0,0,1,437.25,30,71.38,71.38,0,0,1,417.84,9.77Z"/></g></g></svg>