<svg version="1.1" xmlns="http://www.w3.org/2000/svg" xmlns:xlink="http://www.w3.org/1999/xlink" x="0px" y="0px" width="512px"
	 height="512px" viewBox="0 0 512 512" >

<style>
      g { display: none }
      g:target { display: inline } 

    </style>
    		<g id="ds">
			<path d="M122.71,299.25c-30.39-19.36-45.4-48.64-55-81.91-7.19-25-24.32-42.62-46.58-55.62a31.79,31.79,0,0,0-6.29-2.48c-3.46-1.12-9.36,4-10-4.26-.59-7.18,2-12.47,8.47-15.38,14.48-6.53,28.31-4.26,41.3,4.12,4.09,2.64,7.72,6,12,9.35,2.74-7.91,3.77-15.51,8.25-21.78C81.55,122,90.69,118,102,119.32c6.23.72,10,3.4,3.86,9.33-8.93,8.7-10.23,19.71-9.67,31.16,1,20.71,4,41.07,12.55,60.25,4.26,9.55,9.92,18.08,19.89,25.1,5.81-12.8,20.75-18,22.46-34.5,1-9.55,12.4-13.72,22.57-13.92,21.76-.44,43.41-.61,64.56,6.68,13,4.49,25.9,3.42,39.37-2.77,19.41-8.92,40.15-3,60.3-.22a63.62,63.62,0,0,1,13.24,2.94c5.91,2.18,8.6.41,11.6-5,7.54-13.75,20.73-14.42,34.41-12.53,13.31,1.83,21.94,9.61,23.31,22.6,1.11,10.59,6.12,12.3,15.57,12.93,35,2.33,50.8,19.53,51.91,54.56,1,30.14,4,60,12.26,89.19,2.22,7.85,5.19,15.26,12,22.7-22.53,6.6-44.75,8.92-66.94,10.64-15.75,1.23-31.65,2.18-47.4-1.55-11.24-2.66-15.92-7.6-12.86-20,3.73-15.08,5.25-30.68,7.72-46.05-59.19,8.25-117,1.18-174.78,1.3-7.44,0-12.64-.29-17.63,7.57-8.33,13.09-29.26,12.39-41.5-.6-4.7-5-7.62-6.63-14.23-2.91-8,4.52-17.61,4.07-26.65,3-11.69-1.38-19.54-7.34-19.72-19.95-.18-12.87,7.6-18.37,19.58-19.52,1.79-.18,3.56-.46,5.34-.69-1.68,2-3.77,3.82-5,6.1-2.67,5.16-1.48,9.71,4.12,11.87,6.88,2.66,8.05-2.74,9.68-7.47C135,300.59,128.21,300.54,122.71,299.25Zm79.37-95.59c13.4,19.86,14.91,37,1.52,49.76-10.52,10-3,11.74,4.05,14.78,28.31,12.25,58.62,14.29,88.84,16.3,22.69,1.51,33.26,14.54,28.05,36.57-1.23,5.21-1.12,7.43,4.85,7.4,14-.09,28.12.78,42.05-1.58,20.3-3.44,24.63-9.32,22.28-29.58-1.38-12,4.62-17.32,16.69-14.53,11.79,2.73,17.41,10.84,17.84,22.35.44,11.66.48,23.36.06,35-.27,7.27,2.9,9.93,9.65,9.12,12.56-1.5,25.05-3.93,37.64-4.57,11.4-.58,12.06-6.33,10.56-15.21a354.37,354.37,0,0,1-4.83-54.93c-.37-30.54-19.46-48.39-50.06-47.51-4.56.14-7,1.1-8.81,6-5.38,14.5-17.6,20.83-32.09,23.75-15.35,3.1-30.7-1.52-46,0-3.86.39-7.76-1-11.49,2.19-23.21,20-23.28,19.94-49,1.61-1.07-.76-2.5-1-3.71-1.55-15.85-7.56-22.47-19.92-19.9-37.2.49-3.34,1.92-8.12-3.6-8.4C238.45,212.58,222,202.85,202.08,203.66Zm64.78,103.83c-17.22,7.17-54.83,4.11-73-6.95-12.2-7.41-12.77,3.44-16.25,8.46-5.12,7.41-.09,12,7,13.36,40.8,8,81.94,7.37,123.1,3.81,8.07-.69,11.25-6.47,11.2-14.29-.09-13-8.79-20.52-24.42-20.82-38.42-.74-75.74-5.77-109.18-26.69a50.22,50.22,0,0,0-23.12-7.15c-18.75-1.37-30.12,9.53-27.16,25.71,20.71-12.89,34-11.86,51.73,5.47,10.3,10.06,22.54,14.3,36.34,16.27C237.59,306.74,252.28,306.46,266.86,307.49Zm-157.52-.81c-2.34,2.92-4.24,4.37-4.9,6.26-3.44,9.84,1.17,18.18,11.11,20.66,15.64,3.9,32.68-1.15,33.74-10.77.55-5.07,4.57-12.42-2.22-15.66-8.95-4.27-9.47,4.15-12.17,9.55-3.83,7.64-10.09,7.82-17.12,4C112.76,318,111.87,312.57,109.34,306.68Zm72.29,37.13c1.85-.45,5.5-.88,8.75-2.25,3.74-1.57,8.28-4.47,7-8.6s-6-1.61-9.4-1.11c-11.43,1.66-18.05-4.19-18.92-16.5-.24-3.46,3-8.05-4.36-8.48-6.24-.37-7.5,3-8.57,7.76C152.93,328.74,164.83,343.44,181.63,343.81ZM288.1,247.33c-.11,12,10.47,22.26,21.57,20.64,2.92-.43,6.63-.32,6.43-5.08-.19-4.29-2.5-4.79-6.28-4.65-7.59.26-12.76-3.81-11.74-11.28,1.06-7.79,6.56-11.75,14.82-8.31,4.25,1.77,5.78-.06,6.81-3.55,1.32-4.45-2.14-5.15-5-6.24C302.19,224.16,288.22,233.88,288.1,247.33Zm122.06,64.12c-12.13-4.69-9.06,4.81-10.52,10.67-2.43,9.75,4.68,8.93,10.28,9.3,6.12.39,12.76,1.9,12.45-8.58C422.1,314,420.39,308.78,410.16,311.45Zm-1.07,24.83c-3.41,3.24-11.6-3.7-11.63,4.42,0,8.82,9.12,6.16,14.72,7.16,4.25.75,9.77,2,9.55-5.34C421.43,332.69,413.26,339.6,409.09,336.28Zm2.66-31.52c2-1.51,8.32,2.58,7.73-4.61-.58-7-5.74-9.34-12.13-9.91-5.22-.47-6.84,1.78-7.13,6.87C399.72,305.74,405.54,304.62,411.75,304.76Z"/>
		</g>
		<g id="swatch">
			<path d="M32.6,208.74c1.06,1.25,1.74,2.15,2.53,2.95q43.7,44.75,87.48,89.4a6.34,6.34,0,0,0,4.07,1.73q175.07.1,350.12.06c.86,0,1.73-.09,3.08-.16-.76-1-1.15-1.56-1.64-2.06Q453.48,275.29,428.68,250q-19-19.47-38-38.93c-1.36-1.4-2.54-2.49-4.8-2.49q-175,.1-350.11.07C34.86,208.6,34,208.67,32.6,208.74ZM480,98.22h-3.57q-174.69,0-349.38,0a6.42,6.42,0,0,0-5,2.14q-24,24.5-48.19,48.91-19.72,20-39.4,40c-.65.66-1.19,1.41-2.27,2.7h3.69q174.44,0,348.88,0a6.91,6.91,0,0,0,5.45-2.27q19.71-20.19,39.55-40.25Q453.81,125,477.94,100.6C478.49,100,479,99.4,480,98.22ZM33.49,412.48l.26.76h3.37q174.16,0,348.33.05a7.22,7.22,0,0,0,5.67-2.37q22.06-22.57,44.3-45,21.74-22.05,43.47-44.09a27.6,27.6,0,0,0,1.79-2.28h-3.16q-174.91,0-349.83,0a5.85,5.85,0,0,0-4.6,1.91q-12.61,13-25.37,25.81-29.91,30.28-59.84,60.56C36.37,409.31,35,410.91,33.49,412.48Z"/><path fill="#fff" d="M.5,0C.57,1.24.69,2.48.69,3.72q0,251.72,0,503.44a7.56,7.56,0,0,0,.07,2.48,3,3,0,0,0,1.59,1.59,7.52,7.52,0,0,0,2.47.06H508.28c1.24,0,2.48.13,3.72.2-.08.16-.16.47-.25.47-.66,0-1.33,0-2,0H0Q0,257.12,0,2.25A10.64,10.64,0,0,1,.5,0Z"/><path d="M32.6,208.74c1.39-.07,2.26-.14,3.13-.14q175.05,0,350.11-.07c2.26,0,3.44,1.09,4.8,2.49q19,19.5,38,38.93,24.79,25.35,49.56,50.71c.49.5.88,1.1,1.64,2.06-1.35.07-2.22.16-3.08.16q-175.07,0-350.12-.06a6.34,6.34,0,0,1-4.07-1.73q-43.81-44.62-87.48-89.4C34.34,210.89,33.66,210,32.6,208.74Z"/><path d="M480,98.22c-1,1.18-1.47,1.82-2,2.38q-24.1,24.44-48.22,48.88-19.82,20.09-39.55,40.25a6.91,6.91,0,0,1-5.45,2.27q-174.45-.08-348.88,0H32.15c1.08-1.29,1.62-2,2.27-2.7q19.68-20,39.4-40Q97.91,124.76,122,100.31a6.42,6.42,0,0,1,5-2.14q174.69.08,349.38,0Z"/><path d="M33.49,412.48c1.46-1.57,2.88-3.17,4.39-4.7q29.91-30.28,59.84-60.56,12.72-12.87,25.37-25.81a5.85,5.85,0,0,1,4.6-1.91q174.92.06,349.83,0h3.16a27.6,27.6,0,0,1-1.79,2.28q-21.72,22.05-43.47,44.09-22.17,22.48-44.3,45a7.22,7.22,0,0,1-5.67,2.37q-174.17-.09-348.33-.05H33.75Z"/>
		</g>
		<g id="arch">
			<path d="M256,0c-22.8,55.88-36.56,92.48-61.94,146.69,15.58,16.49,34.66,35.61,65.66,57.3-33.34-13.72-56-27.4-73.05-41.7C154.2,230.06,103.25,326.49,0,512c81.14-46.84,144.07-75.68,202.69-86.7a148.08,148.08,0,0,1-3.82-34.8L199,388c1.27-52,28.34-92,60.38-89.31s57,47.15,55.66,99.14a146.86,146.86,0,0,1-3.25,27.88C369.71,437.05,432,465.81,512,512c-15.78-29.05-29.93-55.19-43.37-80.13-21.2-16.43-43.25-37.81-88.35-60.95,31,8.06,53.24,17.32,70.53,27.72C314,143.94,302.9,110.1,256,0Z"/>
		</g>
		<g id="babel">
			<path d="M206.06,55.12a438.78,438.78,0,0,1-47.69,30.09l.21,3.07c1.23,0,2.66-.82,4.71-1.85,2-.2,3.27.62,3.27,2.66l3.28-1.84,1.63-.2.21,1.43c.2,1.43-11.05,10.23-33.36,26l1.84,2.87-1.64.2L135,116.32c0,1-1.43,1.63-4.7,1.84l.2,1.63,3.68,4.1a13.11,13.11,0,0,1-4.91-1c-7.16.62-14.32,5.94-21.28,15.76l1.84,2.87c6.14-5.53,9.62-8.39,10.64-8.39l.41,4.5c-1,0-2.66.82-4.71,1.84l3.89,5.73a114.66,114.66,0,0,1,24.36-20.26c4.5,1.23,6.75,2.46,6.75,4.09l3.28-.2c23.94-17.81,47.68-30.5,71.22-38.48l.2,3.07c-4.29,6.55-7.36,9.83-9,10a12.38,12.38,0,0,0,2.25,5.94c.41,4.09-10.23,30.9-31.93,80.84Q112.93,364,63,447.26c0,1,.82,2.66,1.84,4.5,8.19-2,13.51-3.89,15.76-5.93l1.84-.21.21,3.07,3.07-.2L89,446.65c0,1,1.23,1.43,3.28,1.22l.2,3.07c.21,3.07-1.43,7.78-5.32,14.13-3.48,3.88-7,11.87-10.85,23.94l.21,1.43,3.07-.2c13.3-14.94,23.53-29.68,30.49-44,39.09-11.46,68.77-22.72,89.44-33.77,20.67-1.84,36.64-7.17,47.28-16.17l-.2-1.64-7.78,2.25-1.84.21-.21-1.64c15.15-2.25,25.79-5.73,31.52-10.23,29.68-22.93,52-39.09,67.13-48.71,46.87-34.39,69-67.54,66.31-99.06-.2-3.28-10.64-16.17-30.9-38.68-.41-4.3,6.75-10.44,21.08-18.63l40.73-35.82c9-11.66,14.53-30.49,16.37-56.48l-.61-6.14c-1.64-18.22-14.74-32.95-39.71-44.21q-22.11-15-79.2-16C298.16,24.42,256.82,35.47,206.06,55.12Zm219.4,2.66-1.22,3.07-45.44-19Q424.23,43.66,425.46,57.78ZM241.67,183.86c3.07-16.79,6.55-26.41,10.44-28.66l34-76.34c-.41-4.71,6.75-8.39,21.69-10.85l4.91-.41.41,4.3c14.74-2.25,23.74-3.48,27.22-3.89,27-2.25,40.94,3.07,42.16,16.38l3.07-.21-.61-7.77,3.27-.21c8,4.3,12.28,9.62,12.69,16,.41,4.3-1.84,9.62-7,16-2,.2-3.27-1.23-3.47-4.3l-3.28.21-.82,9.21c-13.71,20.46-23.53,30.9-29.67,31.51q-8.29,11.37-10.44,11.67c-4.3,5.12-16,13.92-35.2,26.2-6.35.61-29.89,9.62-70.61,27.42a11.7,11.7,0,0,0-6.55-1l-.21-2.87C233.28,200.23,235.74,192.86,241.67,183.86ZM429.76,89.71l.21,2.86c-1.64.21-4.71-4.7-9.21-14.53l-.21-2.86C423.42,74.77,426.49,79.68,429.76,89.71ZM131,126.14l.2,1.43c-1,0-2.66.82-4.7,1.84l-1.64.21-.21-2.87Zm98.85-2.46.41,4.51c-1.43.2-3.48,2.25-5.93,6.55l-.21-3.07q4.31-5.22,4.3-8Zm-15.14,31.93.61,6.14-1.64.21-.61-6.14Zm-3.89,11c-.41,5.12-1.64,7.78-4.3,8l-1.64.2c1.85-3.48,2.87-5.94,2.66-7.78Zm-6.76,16,.21,1.43L201.35,189l-3.07.21-.2-1.44q4.6-.3,4.3-4.91ZM197.06,197l-.82,7.58-1.64.2-.61-7.57Zm166,5.53,6.75,4.09a2.86,2.86,0,0,1-2.86,3.48c-2.87-1.84-5.12-2.66-6.76-2.66l-.4-4.5Zm-130,17.4.2,2.86-6.34.62-.21-2.87Zm104.79,10.64c4.5,2,6.75,4.09,7,5.73l.2,1.43c-4.3.41-8.19-1.84-11.87-6.75ZM202.79,263.67c18.42-1.63,47.48-10.23,87-25.78l9.62-.82c20.06-1.64,35,2,44.82,11.46l.62,6.14c-7.37,21.28-15.56,33.56-24.36,37.45l-40.93,32.55C249,344.72,232.67,354.75,230.21,355c-48.5,26.81-78.79,40.52-90.46,41.54l-1.84.21C139.55,391,161,346.77,202.79,263.67ZM247,246.28l.21,1.43-6.55.61-.2-1.43Zm147-6.55,1,12.07c-1.43,3.28-2.87,4.92-4.5,4.92l-1.85-21.29C392.1,236.86,393.74,238.3,393.94,239.73ZM144.87,345.34c-2.05,10.43-4.3,15.76-6.55,16l-.21-1.43C137.7,354.55,140,349.84,144.87,345.34Zm40.93,57.71c11.87-2.25,44.41-19.44,97.83-51.16l.2,2.86c.21,1.23-4.5,5.12-13.71,11.87-27.22,13.31-43.18,22.52-47.89,27.22-29.47,10.24-44,16.58-43.8,19q-39.3,15.64-51.57,22.71c-1.85.21-4.71-.61-8.4-2.25-.4-5.32,1.85-9.62,7.17-13.1a26.19,26.19,0,0,1,13.1,2.05c4.91-2.45,13.3-5.32,25.37-8.19l-.2-3.07-9.62.82c1.23-1.63,10.44-5.93,28-13.1l4.91-.4.21,1.43c-8.19.61-12.9,3.27-13.92,7.57a2.67,2.67,0,0,0,3.27,2.66C182.73,405.92,185.8,403.67,185.8,403.05Zm-50.35-37,.21,1.43a2.87,2.87,0,0,1-2.87,3.48l-.2-1.43C132.38,367.65,133.41,366.42,135.45,366ZM212,386.88c-3.89.41-11.06,3.48-21.9,9.62l-1.64.21-.2-3.07a31.11,31.11,0,0,0,20.05-9.21C210.56,384,211.79,385,212,386.88ZM132.59,409l4.91-.41.2,1.64c-1.22,0-2.66.81-4.7,1.84l-3.07.2C129.72,410.83,130.54,409.6,132.59,409ZM100,427.2l3.48,1.44c-1.22,9.21-3.88,13.91-8.59,14.32a20.89,20.89,0,0,0-10-2l-.41-4.51c-.2-1.84.82-2.86,3.07-3.48,2-.2,3.27,1.23,3.48,4.3C96.57,430.48,99.64,427.2,100,427.2Z"/>
		</g>
		<g id="css">
			<path d="M503.47,187.73H409.6v-76.8c0-.09,0-.17,0-.26s0-.22,0-.34a6.8,6.8,0,0,0-.13-1,.13.13,0,0,0,0-.06,8.11,8.11,0,0,0-.3-1.1,1.46,1.46,0,0,0-.07-.19,8.32,8.32,0,0,0-.44-1l0,0a8.93,8.93,0,0,0-.61-1,1.83,1.83,0,0,0-.13-.16,7,7,0,0,0-.79-.92L304.73,2.54a7.84,7.84,0,0,0-.92-.81l-.15-.11A8.64,8.64,0,0,0,301.6.53l-.13-.05A8.47,8.47,0,0,0,299.21,0H299l-.31,0H8.53A8.52,8.52,0,0,0,0,8.53V503.47A8.52,8.52,0,0,0,8.53,512H401.07a8.52,8.52,0,0,0,8.53-8.53V409.6h93.87a8.52,8.52,0,0,0,8.53-8.53V196.27A8.53,8.53,0,0,0,503.47,187.73Zm-123-85.33H307.2V29.13Zm12.06,392.53H17.07V17.07H290.13v93.86a8.54,8.54,0,0,0,8.54,8.54h93.86v68.26H102.4a8.53,8.53,0,0,0-8.53,8.54v204.8a8.52,8.52,0,0,0,8.53,8.53H392.53Zm102.4-102.4h-384V204.8h384V392.53Z"/><path d="M324.27,238.93a25.64,25.64,0,0,1,25.6,25.6,8.53,8.53,0,1,0,17.06,0,42.67,42.67,0,1,0-42.66,42.67,25.6,25.6,0,1,1-25.6,25.6,8.54,8.54,0,0,0-17.07,0,42.67,42.67,0,1,0,42.67-42.67,25.6,25.6,0,1,1,0-51.2Z"/><path d="M435.2,307.2a25.6,25.6,0,1,1-25.6,25.6,8.54,8.54,0,0,0-17.07,0,42.67,42.67,0,1,0,42.67-42.67,25.6,25.6,0,1,1,25.6-25.6,8.54,8.54,0,1,0,17.07,0A42.67,42.67,0,1,0,435.2,307.2Z"/><path d="M242.14,345.3a59.13,59.13,0,0,1-37.34,13.1,59.74,59.74,0,0,1,0-119.47A59.08,59.08,0,0,1,242.13,252a8.53,8.53,0,0,0,10.68-13.31,76.8,76.8,0,1,0,0,119.9,8.53,8.53,0,0,0-10.67-13.32Z"/>
		</g>
		<g id="html">
			<path d="M486.4,0H25.6A25.64,25.64,0,0,0,0,25.6V486.4A25.64,25.64,0,0,0,25.6,512H486.4A25.64,25.64,0,0,0,512,486.4V25.6A25.64,25.64,0,0,0,486.4,0ZM17.07,25.6a8.54,8.54,0,0,1,8.53-8.53H486.4a8.54,8.54,0,0,1,8.53,8.53V68.27H17.07ZM494.93,486.4a8.54,8.54,0,0,1-8.53,8.53H25.6a8.54,8.54,0,0,1-8.53-8.53V85.33H494.93V486.4Z"/><circle cx="42.67" cy="42.67" r="8.53"/><circle cx="76.8" cy="42.67" r="8.53"/><circle cx="110.93" cy="42.67" r="8.53"/><path d="M78.39,363.36a8.53,8.53,0,1,0,13.89-9.92L53.15,298.67l39.13-54.78A8.53,8.53,0,0,0,78.39,234L35.72,293.71a8.53,8.53,0,0,0,0,9.92Z"/><path d="M421.71,365.35a8.55,8.55,0,0,0,11.9-2l42.67-59.74a8.52,8.52,0,0,0,0-9.91L433.61,234a8.53,8.53,0,1,0-13.89,9.91l39.13,54.78-39.13,54.77A8.54,8.54,0,0,0,421.71,365.35Z"/><path d="M110.93,341.33a8.54,8.54,0,0,0,8.54-8.53V307.2H153.6v25.6a8.54,8.54,0,0,0,17.07,0V264.53a8.54,8.54,0,0,0-17.07,0v25.6H119.47v-25.6a8.54,8.54,0,0,0-17.07,0V332.8A8.53,8.53,0,0,0,110.93,341.33Z"/><path d="M196.27,273.07h17.06V332.8a8.54,8.54,0,0,0,17.07,0V273.07h17.07a8.54,8.54,0,0,0,0-17.07h-51.2a8.54,8.54,0,1,0,0,17.07Z"/><path d="M281.6,341.33a8.53,8.53,0,0,0,8.53-8.53V290.13l10.24,13.66c3.22,4.3,10.44,4.3,13.66,0l10.24-13.66V332.8a8.53,8.53,0,1,0,17.06,0V264.53A8.53,8.53,0,0,0,326,259.41l-18.77,25-18.77-25a8.54,8.54,0,0,0-15.36,5.12V332.8A8.53,8.53,0,0,0,281.6,341.33Z"/><path d="M366.93,341.33h34.14a8.53,8.53,0,1,0,0-17.06h-25.6V264.53a8.54,8.54,0,0,0-17.07,0V332.8A8.53,8.53,0,0,0,366.93,341.33Z"/>
		</g>
		<g id="js">
			<path d="M375.47,264.53a42.71,42.71,0,0,0,42.66,42.67,25.6,25.6,0,1,1-25.6,25.6,8.53,8.53,0,1,0-17.06,0,42.67,42.67,0,1,0,42.67-42.67,25.6,25.6,0,1,1,25.6-25.6,8.53,8.53,0,1,0,17.06,0,42.67,42.67,0,0,0-85.33,0Z"/><path d="M503.47,187.73H409.6v-76.8c0-.09,0-.17,0-.26s0-.22,0-.34a6.8,6.8,0,0,0-.13-1,.13.13,0,0,0,0-.06,8.11,8.11,0,0,0-.3-1.1,1.46,1.46,0,0,0-.07-.19,8.32,8.32,0,0,0-.44-1l0,0a8.93,8.93,0,0,0-.61-1,1.83,1.83,0,0,0-.13-.16,7,7,0,0,0-.79-.92L304.73,2.54a7.49,7.49,0,0,0-.9-.79l-.19-.14a7.82,7.82,0,0,0-1-.61l-.05,0a8.18,8.18,0,0,0-1-.44l-.18-.07A8.66,8.66,0,0,0,299.23,0H299l-.32,0H8.53A8.52,8.52,0,0,0,0,8.53V503.47A8.52,8.52,0,0,0,8.53,512H401.07a8.52,8.52,0,0,0,8.53-8.53V409.6h93.87a8.52,8.52,0,0,0,8.53-8.53V196.27A8.53,8.53,0,0,0,503.47,187.73ZM307.2,29.13l73.27,73.27H307.2Zm85.33,465.8H17.07V17.07H290.13v93.86a8.54,8.54,0,0,0,8.54,8.54h93.86v68.26H230.4a8.53,8.53,0,0,0-8.53,8.54v204.8a8.52,8.52,0,0,0,8.53,8.53H392.53Zm102.4-102.4h-256V204.8h256Z"/><path d="M332.8,221.87a8.52,8.52,0,0,0-8.53,8.53V332.8a17.07,17.07,0,0,1-34.14,0,8.53,8.53,0,1,0-17.06,0,34.13,34.13,0,0,0,68.26,0V230.4A8.52,8.52,0,0,0,332.8,221.87Z"/>
		</g>
		<g id="kare-bomb">
			<path d="M391 170.67H408V187.73999999999998H391z"/><path d="M323 153.6H340V170.67H323z"/><path d="M459 136.53H476V153.6H459z"/><path d="M391 136.53H408V153.6H391z"/><path d="M340 136.53H357V153.6H340z"/><path d="M442 119.47H459V136.54H442z"/><path d="M323,102.4H306v17.07h51V102.4Z"/><path d="M153,119.47V153.6H102v51.2H68v17.07H34V256H17v34.13H0V409.6H17v34.13H34v34.14H68v17.06h34V512H221V494.93h34V477.87h34V443.73h17V409.6h17V290.13H306V256H289V221.87H255V204.8H221V153.6H170V102.4H153ZM51,358.4V324.27H68v51.2H51Zm17-68.27H85V307.2H68Zm0,102.4H85V409.6H68Zm34,34.14h17v17.06H102Z"/><path d="M374,85.33H357V102.4h51V85.33Z"/><path d="M289,85.33H272V102.4h34V85.33Z"/><path d="M170 85.33H187V102.4H170z"/><path d="M476 68.27H493V85.34H476z"/><path d="M442 68.27H459V85.34H442z"/><path d="M255,68.27H187V85.33h85V68.27Z"/><path d="M340 51.2H357V68.27000000000001H340z"/><path d="M374 34.13H391V51.2H374z"/><path d="M306 34.13H323V51.2H306z"/><path d="M425 17.07H442V34.14H425z"/><path d="M442 0H459V17.07H442z"/><path d="M357 0H374V17.07H357z"/>
		</g>
		<g id="node">
			<path d="M256,512a41.29,41.29,0,0,1-19.76-5.17l-62.56-37.16c-9.4-5.18-4.7-7.06-1.88-8,12.7-4.23,15.06-5.17,28.23-12.7,1.41-.94,3.29-.47,4.7.47l48,28.69a6,6,0,0,0,5.64,0L446,369.48a5.4,5.4,0,0,0,2.82-5.18V147.46a5.4,5.4,0,0,0-2.82-5.17L258.35,34.1a6,6,0,0,0-5.64,0L65,142.29a5.9,5.9,0,0,0-2.82,5.17V364.3A5.91,5.91,0,0,0,65,369.48l51.27,29.63c27.75,14.11,45.16-2.35,45.16-18.81v-214a5.72,5.72,0,0,1,5.64-5.65h24a5.72,5.72,0,0,1,5.64,5.65v214c0,37.16-20.22,58.79-55.5,58.79-10.82,0-19.29,0-43.28-11.76L48.57,399.11a39.7,39.7,0,0,1-19.76-34.34V147.93a39.71,39.71,0,0,1,19.76-34.34L236.24,4.94a42,42,0,0,1,39.52,0L463.43,113.59a39.71,39.71,0,0,1,19.76,34.34V364.77a39.7,39.7,0,0,1-19.76,34.34L275.76,507.77A48.2,48.2,0,0,1,256,512Zm57.86-149.11c-82.32,0-99.25-37.63-99.25-69.61a5.72,5.72,0,0,1,5.64-5.65h24.46c2.82,0,5.18,1.88,5.18,4.71,3.76,24.93,14.58,37.16,64.44,37.16,39.51,0,56.44-8.94,56.44-30.11,0-12.23-4.7-21.16-66.32-27.28-51.27-5.17-83.26-16.46-83.26-57.39,0-38.1,32-60.67,85.61-60.67,60.21,0,89.84,20.69,93.6,65.85a7.58,7.58,0,0,1-1.41,4.23,5.8,5.8,0,0,1-3.76,1.88H370.77a5.51,5.51,0,0,1-5.17-4.23c-5.65-25.87-20.23-34.34-58.8-34.34-43.27,0-48.45,15.06-48.45,26.34,0,13.64,6.12,17.88,64.44,25.4,57.86,7.53,85.14,18.35,85.14,58.8-.47,41.39-34.34,64.91-94.07,64.91Z"/>
		</g>
		<g id="npm">
			<path d="M227.56 213.33H256V270.22H227.56z"/><path d="M0,156.44V327.11H142.22v28.45H256V327.11H512V156.44ZM142.22,298.67H113.78V213.33H85.33v85.34H28.44V184.89H142.22Zm142.22,0H227.56v28.44H170.67V184.89H284.44Zm199.12,0H455.11V213.33H426.67v85.34H398.22V213.33H369.78v85.34H312.89V184.89H483.56Z"/>
		</g>
		<g id="osx">
			<path d="M495.84,462H16.16A15.64,15.64,0,0,1,.52,446.31V65.7A15.65,15.65,0,0,1,16.16,50.05H495.84A15.65,15.65,0,0,1,511.48,65.7h0V446.31A15.64,15.64,0,0,1,495.84,462ZM16.16,60.48A5.22,5.22,0,0,0,11,65.7V446.31a5.21,5.21,0,0,0,5.21,5.21H495.84a5.21,5.21,0,0,0,5.21-5.21V65.7a5.22,5.22,0,0,0-5.21-5.22Z"/><path d="M323.78,512a5.22,5.22,0,0,1-4.54-2.65C288.47,455,284,391.84,285.72,348.47a427.5,427.5,0,0,1,9.54-75.26h-81A5.23,5.23,0,0,1,209,268a4,4,0,0,1,0-.6c9.24-83.27,38.82-151,62-193.15C296.23,28.52,318.9,2.83,319.85,1.75a5.22,5.22,0,1,1,7.8,6.93c-.23.26-23,26.07-47.59,70.91C258,119.92,229.93,184,220.15,262.78h81.73a5.21,5.21,0,0,1,5,6.57c-.1.33-9,34-10.78,79.78C294.52,391,298.75,452,328.32,504.22a5.21,5.21,0,0,1-4.54,7.78Z"/><path d="M259.13,373.31c-98.31,0-166.64-39.7-169.49-41.4a5.21,5.21,0,0,1,5.29-9h0c.68.4,68.83,39.94,164.2,39.94,95.54,0,166.7-39.62,167.4-40A5.22,5.22,0,0,1,432,331.8l-.3.17C428.68,333.69,357.39,373.31,259.13,373.31Zm-123-189.78a5.22,5.22,0,0,1-5.21-5.22V132.43a5.22,5.22,0,0,1,10.43,0v45.88A5.22,5.22,0,0,1,136.08,183.53Zm223.15,0a5.22,5.22,0,0,1-5.21-5.22V132.43a5.22,5.22,0,0,1,10.43,0v45.88A5.22,5.22,0,0,1,359.23,183.53Z"/>
		</g>
		<g id="react">
			<path d="M512,256.05c0-33.92-42.48-66.06-107.6-86,15-66.38,8.35-119.18-21.08-136.09-6.78-4-14.71-5.84-23.38-5.84V51.4a24.18,24.18,0,0,1,11.9,2.71c14.2,8.14,20.35,39.14,15.55,79-1.15,9.81-3,20.15-5.32,30.69a506.72,506.72,0,0,0-66.27-11.38,508.14,508.14,0,0,0-43.42-52.18c34-31.62,66-48.95,87.67-48.95V28h0C331.35,28,293.78,48.48,255.79,84c-38-35.28-75.56-55.52-104.26-55.52V51.71c21.61,0,53.65,17.22,87.67,48.63a493.61,493.61,0,0,0-43.1,52.08,488.86,488.86,0,0,0-66.38,11.48c-2.4-10.44-4.17-20.56-5.42-30.26-4.91-39.87,1.14-70.87,15.23-79.11,3.13-1.88,7.2-2.71,12-2.71V28.54h0A46.49,46.49,0,0,0,128,34.39C98.62,51.29,92.05,104,107.18,170.16,42.27,190.2,0,222.24,0,256.05s42.48,66.06,107.6,86c-15,66.37-8.35,119.18,21.08,136.08,6.78,4,14.71,5.85,23.48,5.85,28.7,0,66.27-20.46,104.26-55.94,38,35.28,75.56,55.52,104.26,55.52a46.59,46.59,0,0,0,23.58-5.84c29.33-16.91,35.9-69.61,20.77-135.78C469.73,322,512,289.87,512,256.05ZM376.12,186.44c-3.86,13.47-8.66,27.35-14.09,41.23-4.28-8.35-8.76-16.7-13.67-25s-9.91-16.49-15-24.42C348.15,180.39,362.45,183.1,376.12,186.44Zm-47.8,111.15c-8.14,14.09-16.49,27.45-25.15,39.86-15.55,1.36-31.31,2.09-47.17,2.09s-31.52-.73-47-2q-13-18.63-25.26-39.66c-7.93-13.67-15.13-27.55-21.71-41.53,6.47-14,13.78-28,21.61-41.65,8.14-14.08,16.49-27.44,25.15-39.86,15.55-1.36,31.31-2.09,47.17-2.09s31.52.73,47,2c8.66,12.42,17.12,25.68,25.26,39.66,7.93,13.67,15.13,27.55,21.71,41.54C343.35,269.93,336.15,283.92,328.32,297.59ZM362,284c5.64,14,10.44,28,14.4,41.54-13.67,3.34-28.07,6.15-43,8.35,5.11-8,10.22-16.28,15-24.74S357.75,292.37,362,284ZM256.21,395.38a429.42,429.42,0,0,1-29-33.4c9.39.42,19,.73,28.7.73s19.51-.21,29-.73A407.46,407.46,0,0,1,256.21,395.38Zm-77.65-61.47c-14.82-2.2-29.11-4.91-42.79-8.25,3.87-13.46,8.67-27.34,14.09-41.22,4.28,8.35,8.77,16.7,13.68,25.05S173.45,326,178.56,333.91Zm77.13-217.18a431.34,431.34,0,0,1,29,33.39c-9.39-.41-19-.73-28.7-.73s-19.52.21-29,.73A407.26,407.26,0,0,1,255.69,116.73ZM178.46,178.2c-5.11,8-10.23,16.28-15,24.73s-9.29,16.7-13.57,25c-5.63-14-10.43-28-14.4-41.54C149.13,183.21,163.54,180.39,178.46,178.2ZM84,308.86c-36.94-15.76-60.84-36.42-60.84-52.81S47.07,218.9,84,203.25c9-3.87,18.79-7.31,28.91-10.55a502,502,0,0,0,23.48,63.56,495.4,495.4,0,0,0-23.17,63.24C102.9,316.27,93.09,312.72,84,308.86ZM140.16,458c-14.2-8.14-20.35-39.13-15.55-79,1.15-9.81,3-20.14,5.32-30.68a505.09,505.09,0,0,0,66.27,11.37,508.14,508.14,0,0,0,43.42,52.18c-34,31.63-66,48.95-87.67,48.95A24.76,24.76,0,0,1,140.16,458ZM387.7,378.47c4.91,39.87-1.14,70.86-15.23,79.11-3.13,1.87-7.2,2.71-12,2.71-21.61,0-53.65-17.22-87.67-48.63a493.61,493.61,0,0,0,43.1-52.08,488.86,488.86,0,0,0,66.38-11.48A289.85,289.85,0,0,1,387.7,378.47Zm40.18-69.61c-9,3.86-18.78,7.3-28.9,10.54a501.1,501.1,0,0,0-23.49-63.56,491.83,491.83,0,0,0,23.17-63.24c10.33,3.24,20.14,6.78,29.33,10.65,36.94,15.75,60.84,36.42,60.84,52.8S464.83,293.21,427.88,308.86Z"/><circle cx="255.9" cy="256.05" r="47.69"/>
		</g>
		<g id="sass">
			<path d="M440.87,284.74a106.07,106.07,0,0,0-46.38,10.76c-4.77-9.45-9.54-17.86-10.38-24-.94-7.2-2.06-11.59-.94-20.2s6.17-20.85,6.08-21.79-1.12-5.33-11.41-5.42-19.17,2-20.2,4.68a112.61,112.61,0,0,0-4.3,15.24c-1.78,9.35-20.58,42.74-31.33,60.23-3.46-6.83-6.45-12.82-7.11-17.59-.93-7.2-2.06-11.59-.93-20.2s6.17-20.85,6.08-21.79-1.13-5.33-11.41-5.42-19.17,2-20.2,4.68-2.15,9.07-4.31,15.24S257,321,250.47,335.43c-3.37,7.39-6.27,13.28-8.33,17.3h0a4.12,4.12,0,0,1-.37.75c-1.78,3.46-2.81,5.33-2.81,5.33v.09c-1.4,2.53-2.89,4.87-3.64,4.87-.56,0-1.59-6.74.18-15.9,3.75-19.36,12.63-49.47,12.54-50.5,0-.56,1.68-5.8-5.8-8.51-7.3-2.71-9.91,1.78-10.57,1.78s-1.12,1.59-1.12,1.59,8.13-33.86-15.53-33.86c-14.77,0-35.16,16.18-45.26,30.77-6.36,3.46-19.92,10.85-34.41,18.8-5.52,3.08-11.23,6.17-16.56,9.07-.37-.38-.74-.84-1.12-1.22-28.62-30.58-81.55-52.18-79.3-93.24.84-15,6-54.24,101.65-101.93,78.74-38.81,141.4-28.06,152.25-4.21,15.52,34-33.57,97.26-114.93,106.42-31.05,3.47-47.32-8.51-51.44-13-4.3-4.68-5-5-6.55-4-2.61,1.41-.93,5.62,0,8.05,2.44,6.36,12.44,17.58,29.37,23.1,15,4.86,51.34,7.57,95.39-9.45,49.28-19.08,87.81-72.1,76.5-116.52C309.29,65.91,234.48,51,163.68,76.2,121.6,91.16,76,114.73,43.14,145.4,4.14,181.87-2,213.58.49,226.86,9.56,274,74.56,304.66,100.56,327.39c-1.31.75-2.53,1.4-3.56,2-13,6.46-62.56,32.36-74.91,59.76-14,31.05,2.25,53.31,13,56.3,33.39,9.26,67.71-7.39,86.13-34.88s16.18-63.22,7.67-79.59a1.93,1.93,0,0,0-.37-.56c3.37-2,6.83-4,10.19-6,6.64-3.93,13.19-7.58,18.8-10.57-3.18,8.7-5.52,19.08-6.64,34-1.4,17.58,5.8,40.4,15.24,49.38,4.21,3.93,9.17,4,12.35,4,11,0,16-9.17,21.51-20,6.73-13.28,12.81-28.71,12.81-28.71s-7.58,41.7,13,41.7c7.48,0,15.06-9.72,18.42-14.68v.1s.19-.28.56-.94c.75-1.22,1.22-2,1.22-2v-.19c3-5.24,9.72-17.11,19.73-36.85,12.91-25.43,25.34-57.23,25.34-57.23a164.16,164.16,0,0,0,5,20.67c2.25,7.57,6.92,15.9,10.66,23.94-3,4.21-4.86,6.54-4.86,6.54l.09.1c-2.43,3.18-5,6.64-7.95,10-10.19,12.16-22.35,26.1-24,30.12-2,4.77-1.5,8.23,2.24,11,2.72,2.06,7.58,2.34,12.54,2.06a57.49,57.49,0,0,0,18.79-4.3,63.11,63.11,0,0,0,16.18-8.51c10-7.39,16.09-18,15.53-31.89-.28-7.67-2.81-15.34-5.9-22.54.94-1.31,1.78-2.62,2.72-3.93a428.87,428.87,0,0,0,28.05-48.44A161.93,161.93,0,0,0,365,288c1.87,6.54,5.7,13.65,9.07,20.57-14.87,12.07-24,26.09-27.31,35.26-5.89,17-1.31,24.69,7.39,26.46,3.93.85,9.54-1,13.65-2.8a61.85,61.85,0,0,0,17.3-8.89c10-7.38,19.64-17.67,19.08-31.61a59.73,59.73,0,0,0-4.3-18.7c12.63-5.24,28.9-8.14,49.66-5.7,44.51,5.23,53.3,33,51.62,44.7s-11,18.05-14.12,20-4.11,2.62-3.83,4c.37,2.06,1.87,2,4.48,1.59,3.65-.65,23.38-9.44,24.23-30.95C513.35,314.48,487.16,284.46,440.87,284.74ZM97.47,400.52c-14.77,16.09-35.35,22.16-44.23,17-9.54-5.52-5.8-29.27,12.34-46.29,11-10.38,25.25-20,34.7-25.91,2.15-1.3,5.33-3.18,9.16-5.51.66-.38,1-.56,1-.56h0l2.24-1.41C119.35,362.18,113,383.59,97.47,400.52ZM205,327.39c-5.15,12.53-15.9,44.61-22.45,42.83-5.61-1.5-9.07-25.81-1.12-49.85,4-12.06,12.53-26.46,17.49-32.07,8-9,16.93-12,19.08-8.33C220.73,284.74,208.2,319.53,205,327.39Zm88.75,42.46c-2.15,1.12-4.21,1.87-5.15,1.31-.65-.38.94-1.87.94-1.87s11.13-12,15.52-17.4c2.53-3.18,5.52-6.92,8.7-11.13V342C313.78,356.29,299.94,365.92,293.77,369.85Zm68.45-15.62c-1.59-1.12-1.31-4.86,4-16.55,2.06-4.59,6.92-12.26,15.25-19.64a26.4,26.4,0,0,1,1.49,8.6C382.89,344.69,370,351.42,362.22,354.23Z"/>
		</g>
		<g id="storybook">
			<path d="M461.42,24.14A25.73,25.73,0,0,0,434.13.05L405.87,1.82l2.06,59.08a3.84,3.84,0,0,1-3.7,4,3.78,3.78,0,0,1-2.52-.82l-19-15-22.54,17.1A3.84,3.84,0,0,1,354,62.93h0l2.41-58L74.66,22.52A25.75,25.75,0,0,0,50.54,49.18L66.4,471.79A25.75,25.75,0,0,0,91,496.54L434.58,512c.38,0,.77,0,1.15,0a25.73,25.73,0,0,0,25.74-25.74V25.74C461.47,25.21,461.46,24.67,461.42,24.14ZM265.66,415c-61.31,0-114.89-24.81-108.84-110.8,2.38-10.1,80.32-7.7,80.32,0-.95,35.48,7.13,45.92,27.57,45.92,15.68,0,22.81-8.64,22.81-23.2,0-51.86-128.32-53.69-128.32-148.77,0-54.59,37.55-91,104.56-91s103.6,35.84,103.6,104c-9.05,7-76.51,11.83-76.51,1.82,1.42-38.22-15.69-39.89-25.19-39.89-9,0-24.24,2.73-24.24,23.2,0,50.5,130.22,47.77,130.22,149.68C371.64,383.29,325.06,415,265.66,415Z"/>
		</g>
		<g id="sublime">
			<path d="M69.81,118.57,432,3.64S457.67-9.84,451.48,15.1l.93,110.75s4.49,16.26-17.82,20.29l-147.15,46Z"/><path d="M69.81,118.57S55.56,122,59.74,146.3L59,253s-1.24,13.48,24.31,18.9l358.9,115.55s12.08,4.8,10.69-10.07l.15-119s3.41-12.24-18.89-20.29l-146.69-46Z"/><path d="M228,318.39,75.23,365S56.8,365.63,59,400.17s-.16,104.09-.16,104.09,1.55,12.86,19.21,5.43L440.17,394.13s12.85-3.25,2-6.81C431.34,383.91,228,318.39,228,318.39Z"/>
		</g>
		<g id="terminal">
			<path d="M475.44,36.56H36.59A36.54,36.54,0,0,0,0,73.19v365.7a36.55,36.55,0,0,0,36.59,36.55H475.44A36.64,36.64,0,0,0,512,438.89V73.19A36.6,36.6,0,0,0,475.44,36.56ZM174.84,64a18.29,18.29,0,1,1-18.31,18.3A18.28,18.28,0,0,1,174.84,64Zm-56,0a18.29,18.29,0,1,1-18.31,18.3A18.32,18.32,0,0,1,118.85,64ZM64,64a18.29,18.29,0,1,1-18.23,18.3A18.27,18.27,0,0,1,64,64ZM475.44,438.89H36.59V128.39H475.44Z"/><path d="M277.83,292.27l-168.1,86.25v-25l142.73-71v-.73l-142.73-71v-25l168.1,85.84Z"/><path d="M402.22,269.13v23.14H312.77V269.13Z"/>
		</g>
		<g id="vim">
			<path d="M291.63,323c.82.82,2.43,2,3.66,2h21.59c1.22,0,2.84-1.22,3.66-2l5.7-6.11a3.54,3.54,0,0,0,1.23-2.44l6.11-20.76a5.85,5.85,0,0,0-1.23-5.3l-4.48-3.66c-.81-.82-2.43-.41-3.65-.41H304.67l-1.22-1.22c-.82,0-1.64-.41-2.46.4l-7.74,4.89c-.82,0-1.23,2-1.64,2.84l-6.52,19.95a5.7,5.7,0,0,0,1.23,6.12l5.29,5.7Zm3.25,107.53-1.63.41h-4.89L317.69,345c.82-2.85-.4-6.12-3.25-6.93l-1.63-.41H263.52a5.25,5.25,0,0,0-4.07,4.07l-2.84,10.18c-.82,2.84,1.23,5.29,4.07,6.11l1.23-.41h7.34L239.5,442.72c-.82,2.84.41,6.52,3.25,7.75l1.64,1.23H290c2.44,0,4.48-2.05,5.3-4.48l2.84-9.77a5.14,5.14,0,0,0-2.72-6.74,3.35,3.35,0,0,0-.53-.19Zm216.3-80.24-7.75-10.18v-.41c-1.22-1.22-2.43-2.43-4.07-2.43H470c-1.63,0-2.84,1.63-4.07,2.43l-8.15,9.77H445.17l-8.54-9.77v-.41a5,5,0,0,0-4.07-2H416.27L498.55,255,406.5,163.72,488.78,79V42.36L477.37,27.7H310.78L297.33,42V53.76l-46-46.42L219.94,37.88,210.17,27.7H45.61l-13,15.07V81.06L44.79,92.87H57v106.3l-57,57,57,57V443.56l21.18,11.81h47.24l37.07-38.69,88,88,59.06-59.06c.41,1.64,1.63,2,3.66,2.84l1.63-.81h38.29c2.45,0,4.48-.41,4.89-2.44l2.84-8.13A4.6,4.6,0,0,0,357.6,431l-1.64.4h-1.63l13.86-43.58,9.36-9.36h20.36l-20.36,64.76c-.82,2.84.82,4.48,3.66,5.7l1.63-.81h37.07c2,0,4.07-.41,4.88-2.44l3.25-7.34c1.23-2.84-.41-5.29-2.84-6.52-.41-.41-1.22,0-2,0h-1.64l17.11-52.94h24.84L442.7,443.58c-.82,2.84.82,4.48,3.66,5.29l1.64-1.22h40.74c2,0,4.06-.41,4.88-2.44l3.25-8.13c1.23-2.85-.41-5.3-3.25-6.12-.41-.4-1.22.41-2,.41h-2.84L511.55,356a6.71,6.71,0,0,0-.41-5.7ZM251.3,15.07l46,46V80.26L311.17,97h6.52L199.58,211V97H213l11-17.11V43.6l-.82-1.22,28.11-27.29ZM7.73,256.18,57,206.9v98.57Zm158.45,156L404,167.81l87.17,87.58-82.28,82.28h-.41a7,7,0,0,0-2.84,2l-8.55,9.77H385.32l-9-9.77a5.37,5.37,0,0,0-4.07-2.43H336.46a5.65,5.65,0,0,0-5.3,4.07l-3.25,10.18c-.81,2.84.41,5.29,3.25,6.52h6.12l-26.07,77L249.7,497l-83.5-84.71Z"/>
		</g>
		<g id="webpack">
			<path d="M472.62,394.61,265.11,512V420.59l129.3-71.14,78.21,45.16Zm14.22-12.85V136.3l-75.91,43.87V338l75.91,43.8ZM39.38,394.61,246.89,512V420.59L117.53,349.45,39.38,394.61ZM25.16,381.76V136.3l75.91,43.87V338Zm8.91-261.38L246.89,0V88.35l-136.37,75-1.09.61-75.36-43.6Zm443.86,0L265.11,0V88.35l136.37,75,1.09.61,75.36-43.53Z"/><path d="M246.89,399.78l-127.6-70.19V190.64l127.6,73.66Zm18.22,0,127.6-70.12v-139L265.11,264.3ZM127.93,174.59,256,104.2l128.07,70.39L256,248.52Z"/>
		</g>
</svg>