<svg xmlns="http://www.w3.org/2000/svg" viewBox="0 0 512 512"><defs><style>.cls-1{fill:red;}</style></defs><title>arch</title><g id="Layer_2" data-name="Layer 2"><g id="arch"><rect class="cls-1" width="512" height="512"/><path d="M256,0c-22.8,55.88-36.56,92.48-61.94,146.69,15.58,16.49,34.66,35.61,65.66,57.3-33.34-13.72-56-27.4-73.05-41.7C154.2,230.06,103.25,326.49,0,512c81.14-46.84,144.07-75.68,202.69-86.7a148.08,148.08,0,0,1-3.82-34.8L199,388c1.27-52,28.34-92,60.38-89.31s57,47.15,55.66,99.14a146.86,146.86,0,0,1-3.25,27.88C369.71,437.05,432,465.81,512,512c-15.78-29.05-29.93-55.19-43.37-80.13-21.2-16.43-43.25-37.81-88.35-60.95,31,8.06,53.24,17.32,70.53,27.72C314,143.94,302.9,110.1,256,0Z"/></g></g></svg>