<svg xmlns="http://www.w3.org/2000/svg" viewBox="0 0 512 512"><defs><style>.cls-1{fill:red;}</style></defs><title>babel-complete</title><g id="Layer_2" data-name="Layer 2"><g id="babel-complete"><rect class="cls-1" width="512" height="512"/><g id="g824"><path id="path2" d="M451.75,161.14c-1.39,6.34-3.65,11-6.68,14.15l-2.18-1.39c2.35-6,3.48-9.46,3.39-10.33l-.61-.95c-.78.09-1.82,2.17-3.12,6.34l-1.13.08a4.84,4.84,0,0,0-.61-2l-.52.08C430.05,195.7,425.44,209,416,230.94c-1.73,5.65-3.21,8.77-4.51,9.38a.91.91,0,0,0,1.13.87,14.06,14.06,0,0,1-1.91,8.16c-4.43,12.59-7.3,19.53-8.77,20.75l.95,6a.86.86,0,0,1-.95,1l-1,.09c-.18-1.65-.79-2.44-1.83-2.35l-.52.09a25.38,25.38,0,0,0-3,7.29l1.05-.09a3.38,3.38,0,0,0,1.9-3.21l2.09-.17,1.13.43a6.21,6.21,0,0,0-1.31,3.56l.53,1-1.31,3.12.09.52a6.5,6.5,0,0,1,3.91,1.13,7.59,7.59,0,0,0,3.12-1.21c1.22-.09,5.56-.18,13.2-.18l3.82-1.3c4.69-.09,5.38.09,9.46-.26l1.65-.17.87-.61.09.52a24.62,24.62,0,0,1,7.81.35l.09.52-2.35.17.09,1a3.34,3.34,0,0,0,1.82-.7c.61-.09,1,.26,1,1a17.29,17.29,0,0,0-3.21.69l-1-.35a10.12,10.12,0,0,1-2.34.61l-1.65-.35a.47.47,0,0,1-.35.52c.09.61.35,1,.95.87l2-.17-.87-.35c0,.26.18.44.52.44l8.6-.79,3.3-.69a.4.4,0,0,0,.43.43l1.56-.6,3-.26c2.34-.18,2.25-.35,7.2-1.13,0-.26.09-.44.35-.44v.44c9.46-1.57,8.59-1.48,10.59-2.17l-.43-1a17.64,17.64,0,0,1-4,.43l-7.2.35-.09-.52,4-.53,1.48-.08.78-.61.09.52c5.64-.52,7.64,1,33.94-4.6,1.39-.09,1.3-1.3,2.17-3.73a2.57,2.57,0,0,1-1.39-.35c-2.17.87-3.3.43-7.46,1.13-.35,0-.61-.26-.78-1v-.43l4,.17a9.81,9.81,0,0,0,4.34-1.39c.43.26-.35.52.09.44l.69-.09c.44,0,.61-.35.61-1l-.43-1c-2.7.26-4,.35-6.17,1.57l-.09-.52-3.29.34c-.09-1-.35-1.47-.79-1.47l-1.73.17c-2,.17-3,.09-3.91.87,0-.35-.17-.52-.35-.52l-1.91.17-1.12.61c0-.35-.18-.52-.35-.52l-.7.61-.08-.52-2.61-.18-.61.09.09.95,1.39.35,1.22-.09a2.83,2.83,0,0,0,1.47.35l1.13-.52v.43c-6.16,1.57-6.16,1.22-10.42,2a2.06,2.06,0,0,0-1-.43c-.43.43.52.08.26.08a.91.91,0,0,1-1.13-.86l2.17-.26a14.25,14.25,0,0,0,1.48.43c1.74-.87,1.82-1.22,2.78-1.3l-.09-1c-6.08,1.22-3.65.44-11.29,1h-.34l-.09-.95c9.81-1.22,6.51-.52,9.81-1.48,0,.35.17.52.35.52a2.06,2.06,0,0,1,1.39-.6l.69-.09c3.39-.26,4.6.43,11.37-1.48v.44l1.13-.52,1-.09c-.08-1,1.48-1.13,1.91-1.22l-.08-1c-11.9,2.43-15,1.74-18.32,2.69v-.43a13.78,13.78,0,0,1-4,.35,1.74,1.74,0,0,0-1,.61c0-.35-.17-.53-.43-.53-.52,0-.26.18-.7.61l.7-.61-10.33,1.65a.41.41,0,0,0-.44-.43c-5.21,1.13-3.82,1.3-10.85,1.91a2.49,2.49,0,0,0-1.3.52c0-.26-.18-.43-.52-.43l-4.34.34-2.87.7c0-.26-.17-.44-.52-.44a24.1,24.1,0,0,1-4.17.79H436c-.7.08.34-.18-.18-.44l-.87.52c-1.3.09-.6-.08-4.94,0-7.64,1-6.78,1-7.64,1.13l-2.87-.17c0,.26-.09.43-.43.52-3.22-.44-4.86-1-4.95-1.56.43-3,1.13-4.61,2.26-4.78l.52-.09-.52,1,.52-.09c1-.52,1.47-1,1.47-1.56l-.08-1.05-1.05.09-.08-1a3.72,3.72,0,0,1,.26-2l2.34-3.73.09.95,1.13-.09-.09-1-.61-1a3.66,3.66,0,0,1,2-1.12l-.09-.52-1.47.08-.09-1.47c2.95-6.25,4.43-9.9,4.34-10.86l1,.44c.7-.09,1-.44,1-1.13l-1,.09v-.44a4,4,0,0,1,.34-2.08,6.35,6.35,0,0,0,2.17-5.21.46.46,0,0,1,.52.52c1.39-.78,2.43-2.86,3.22-6.34,2.43-4.42,5.9-13.28,10.41-26.48,8.69-23.35,8.34-25.87,9.55-31.34l-1,.09a3.19,3.19,0,0,1-.43,2,5.88,5.88,0,0,0-1.65-.44v-.43q-.27-3,2.6-7.29h.44L453,171l1-.08c0-.26.26-1.57.78-4.08-.09-.53-.44-.79-1.22-.87l-.95.6c-.09-.69,0-2.51.08-5.55Zm-12.5,15,.52-.09c-.78,1.39-1.39,2.17-2,2.26l-.08-1.47A3.94,3.94,0,0,0,439.25,176.16Zm-4.34,10.42c1-4.25,2.08-6.69,3-7.29l.08.52c-.52,4-1.39,6-2.6,6.16l.17,2.52a5,5,0,0,0-1.3,3.12l-.52.09-.26-3.47C434,188.14,434.56,187.62,434.91,186.58Zm-1.65,5.64a12.62,12.62,0,0,1-1.13,4.08l-.52.09-.09-1.48c.61-1.73,1.22-2.6,1.74-2.69ZM404.7,255.34l.52,1c.78-.08,1.13-.43,1-1l-.09-.52-.52.09Zm13.71,11.37v.43c.78-.08,1.57-1.47,2.26-4.16l-1-.35A18.35,18.35,0,0,0,418.41,266.71Zm87.86,3v.43l-.87,1,1.65-.6h.18l-.09-1h-.35l-.61.52c0-.26,1.83-.78.44-1C506.36,269.58,507.05,269.66,506.27,269.75Zm3.39,3.12,2.34-.17c-.09-.61-1.56-.78-2.08-.78h-.35Zm-41.5.87.69.87c0-.26.09-.43.35-.43l.52.95-2.17-.26C467.38,274.18,467.64,273.83,468.16,273.74Zm-7.12.78a1.11,1.11,0,0,1,1.3,1.13h-2.43v-.43A2.78,2.78,0,0,0,461,274.52Zm5.56-.26.08.52-2,.18-.09-.52Zm-20.15,2.09c0,.26.18.43.52.43,3.22-.61,2.87-.69,4.43-.87.52-.08.78.26.87.87l-8.94.78.87.44-.09-.52-3.39.26-.08-.52,3-.27Zm9.21-.78V276c-.26,0,.86.09.34.52a17.26,17.26,0,0,0-3.38-.26v-.43Zm2.25-.26v.43l-1.65.17v-.43Zm-55.56,8.85.09,1.48c-.52.08-1-.26-1.13-1v-.43Zm74.32-1.3.08.95,1.74-.17-.7-.43.09.52,1.74-.7c11.89-1.3,13.28-.78,13.11-2.17v-.43c-12,2.69-13.55,2.17-16.06,2.43Zm18.57-1.65,1.74.35-.09-1-1.73-.35Zm-51.39,3.38c.52.26-.61.53.09.44l6.07-.52.09.52c-1.74.17-2.86.43-3.21.78a.46.46,0,0,0-.52-.52l-2.61.26-.08-.52C444.37,284.94,443.33,284.94,443.85,284.59ZM472,283.9l.52,1c2-.43.87-.34,1.39-.78,0,.35.17.52.35.52l1.38-.08-.08-1-3.65-.09Zm-34.38,3.73h-.35l-.09-.95h.35Zm-27.17,3.3.08.52,16-1.3-.09-.95-12.76,1-2.69-.35Zm17.79-.95h.18l-.09-1h-.17ZM185.14,206.11C173.85,219.57,168,227,167.6,228.42c-4.6,4.78-6.86,7.64-6.6,8.6-1.21.78-1.73,1.56-1.56,2.43a.53.53,0,0,1-.69-.43,13.56,13.56,0,0,1-8.77,6.16l-4.08.95c-.52.09-.78.53-.78,1.22l.08.52,1.57-.35.08.44-3.47,1.3-6.16,1.39-3.22.17c-.43.44,2.52-.08,1.39.26l-4,1c-2.43.61-3.82.35-4-.61l-.44.09c.26.95,0,1.56-.69,1.73l.78-.17-.35-1.48-7.29,1.74.78.35c-.09-.35-.43-.44-1.13-.26l-.95.78L117,254a8.29,8.29,0,0,1-1.91,1l-1.13-.26c-3,1.74-.78,1.74-1,1.74l.26.95,1.74-.43,2.69-.17-.26,1.13c-9.89,2.6-2.69,1.12-5.38,1.73l-.52.09.26.95,1.56-.34.09.52c-2,.43-3.13.87-3.47,1.3l-.09-.52c-2.61.61-5.21,2.6-7.81,5.9.43,1.91-5.21,4.26,21.35-1.91,1.83-.09,2.87-.09,3.13-.17-.09-.35.08-.52.43-.61,2.95-.35,1.56.17,3.39-.26l5.73-1.3-1.22.69c-.08-.26.09-.43.35-.52a4.6,4.6,0,0,0,2.17-.09l.35,1.48-22.66,35.94L110,307l-2.43,8.25.44-.09,2.43-1-.78,3.21.26,1,.69.87c-.35.08-.43.26-.35.6l.09.53,1-.26c1.48-1.31,2.09-2.52,1.91-3.56a13,13,0,0,0,3.21.26l.09.52a2.25,2.25,0,0,0-1.56,2.34l.08.52.53-.08c8.24-8.95,28.3-39.59,44.45-60.43q-.79-3.39,25.26-9.37l.52-.09c.61,2.69-.69,9.29-4,19.79-2.17,6.34-3.13,9.81-3,10.33-2.78,8.42-4.08,12.94-3.91,13.63L168.82,314a179.3,179.3,0,0,0-9.12,32.65,4,4,0,0,1,1.65.17l.87-.78c.09.35.26.43.69.43l-.34-1.47,2.69-.09c.78-.17,1.47-1.21,2-3-.08-2.69.44-4.16,1.65-4.51,1.65-6.43,2.7-9.72,3-9.81,1.57-6.43,2.69-10.07,3.48-11,2.34-8.33,4-12.67,5.12-12.93l.26,1-1.65,4.43c-3,13.11-6,23.52-9,31.16l.87,3.82.52-.08q11.07-23.7,31.69-93.76a12.25,12.25,0,0,1,5.9-9.55l-.78-.79-.09-.43a5.29,5.29,0,0,0,3.3-1.82c-.09-.35-1.48-.87-4.17-1.57l8.16-34.9a234.45,234.45,0,0,0,4.95-27.52l-.08-.52a18.82,18.82,0,0,1-4.78-4.42v-2.09l-.09-.43-.43.08C210.05,173.9,200,187.19,185.14,206.11Zm11.54,7.9c.44,1.83-.26,5.21-2,10.16-.52,6.25-2.78,9.81-6.69,10.77l-.08-.53-3.48,1.31-1.56.34a3.63,3.63,0,0,1-2.17-.08l-.35-1.39c-.08-.52,4.87-7.47,15.11-20.75Zm-8,21.71,1.13-.26.26.95c-5.47,1.65-8.51,2.52-9.12,2.69a3.91,3.91,0,0,0-1.47.87c-.09-.35-.79-.35-2.17-.09C177.06,238.93,180.88,237.54,188.7,235.72ZM134.79,250.3,136,250l-.26-1-1.22.26Zm15.88-4.17.26,1-2.6.17-.09-.52Zm-30.38,10,.08.52-1.65.35-.08-.52Zm-3,6.34.09.43-2,.43-.26-.95Zm4.77-1,.09.44-3.65.87-.08-.44Zm6.34-1,.09.52-9.55,2.17-.26-.95C124.19,261.15,123.59,261.5,128.36,260.37Zm47.84-11.11.78.87a5.34,5.34,0,0,0-2.43,1l-1.13-.17a30.1,30.1,0,0,1-4.52,1.47l-1,.26a1,1,0,0,1-1.3-.69l7.21-1.65Zm5.12-1.13,5.12-1.21.09.52a28.37,28.37,0,0,0-6.51,2.08l-.09-.52A3.6,3.6,0,0,0,181.32,248.13Zm-53.83,14.59,2.43-.52.26.95c-1,.26-.26.26-1.56.87a24.52,24.52,0,0,0-6,.87l-.09-.52Zm6.6-1.13c.7-.18,1.13.09,1.22.78l-1.48.35c-.61.17-1-.09-1.3-.78Zm-27.17,54.87.08.52c.7-.18,1-.52.79-1.22l-.09-.52A1,1,0,0,0,106.92,316.46Zm2.08,8.68a.87.87,0,0,0,1.22.69c.69-.17,1-.52.78-1.21l-.09-.52-1,.26Zm55.39,14.93a.87.87,0,0,1,1.21.69l.09.53-2,.43a3.21,3.21,0,0,0,.09-1.56Z"/><path id="path4" d="M242.38,186.13a155.06,155.06,0,0,1-14,8.9l.08.87a3.37,3.37,0,0,0,1.43-.64.84.84,0,0,1,1,.8l.87-.48h.4v.4c.08.48-3.25,3-9.76,7.62l.47,1h-.39l-1-.39c0,.31-.39.55-1.35.63v.4l1,1.27a3.46,3.46,0,0,1-1.51-.4c-2.15.16-4.21,1.75-6.27,4.61l.47.87c1.83-1.67,2.86-2.54,3.18-2.54l.08,1.35a3.4,3.4,0,0,0-1.43.63l1.19,1.67a35.74,35.74,0,0,1,7.06-6c1.27.39,2,.79,2,1.19l.95-.08a76.9,76.9,0,0,1,21-11.27l.08.87c-1.27,1.9-2.14,2.86-2.62,2.94a4.45,4.45,0,0,0,.56,1.74c.08,1.19-3,9.13-9.37,23.82q-21.8,51.09-36.52,75.66a2.88,2.88,0,0,0,.63,1.35,11.85,11.85,0,0,0,4.61-1.75h.39l.08.88,1-.08.87-.48c0,.24.32.4.95.32l.08.95c.08.88-.47,2.22-1.51,4.13-1,1.11-2.14,3.49-3.25,7.07l.08.47.95-.08a56.11,56.11,0,0,0,9-13c11.51-3.41,20.25-6.67,26.36-9.92,6.19-.56,10.8-2.14,14-4.76l-.08-.48-2.38.71-.48.08-.07-.47c4.52-.64,7.62-1.67,9.28-3,8.74-6.75,15.33-11.51,19.85-14.29,13.82-10.16,20.33-19.85,19.53-29.22-.08-.95-3.09-4.76-9.13-11.43q-.12-1.9,6.2-5.48L309,212.49q4-5.12,4.77-16.67l-.16-1.75c-.48-5.32-4.37-9.6-11.67-12.94-4.37-2.93-12.15-4.52-23.34-4.84-9,.64-21.2,4-36.21,9.84Zm64.63.64-.48.95-13.34-5.63C302.16,182.48,306.77,184,307,186.77Zm-54.15,37.16c1-5,2-7.79,3.1-8.42L266,193c-.08-1.35,2-2.46,6.35-3.25l1.43-.16.08,1.35c4.29-.72,6.91-1.11,8-1.19,7.94-.72,12.07.95,12.39,4.76l.95-.08-.16-2.14.95-.08c2.3,1.27,3.5,2.78,3.65,4.6q.12,1.9-1.9,4.77c-.64.08-.95-.4-1-1.27l-1,.08-.31,2.7c-4.05,6.11-6.91,9.2-8.74,9.36-1.58,2.23-2.62,3.34-3.09,3.34-1.27,1.51-4.69,4.13-10.32,7.7-1.91.16-8.82,2.86-20.8,8.1a3.85,3.85,0,0,0-1.91-.24l-.08-.87C250.4,228.77,251.2,226.62,252.86,223.93Zm55.42-27.79.08,1c-.48,0-1.35-1.43-2.78-4.29l-.08-.87C306.37,191.85,307.33,193.28,308.28,196.14Zm-88,10.8.08.47A4.2,4.2,0,0,0,219,208h-.39l-.08-.88Zm29.14-.72.08,1.35c-.48,0-1,.71-1.75,1.91l-.08-.88a4.55,4.55,0,0,0,1.19-2.38Zm-4.53,9.37.16,1.75-.47.08-.16-1.75Zm-1.11,3.25c-.08,1.51-.47,2.31-1.19,2.39l-.48.08a4.31,4.31,0,0,0,.72-2.39Zm-2.06,4.69.08.47-.8,1.43-.95.08L240,225c.95-.08,1.43-.56,1.35-1.51Zm-2,4.21-.31,2.3h-.4l-.16-2.3Zm48.91,1.66,2,1.19a.79.79,0,0,1-.87,1,3.14,3.14,0,0,0-2-.72v-1.35Zm-38.27,5.08.08.88-1.9.16-.08-.88Zm30.88,3.26c1.35.63,2,1.19,2.07,1.67v.39a4.19,4.19,0,0,1-3.57-2Zm-39.77,9.76c5.4-.47,13.89-3,25.56-7.62l2.94-.24c5.88-.47,10.24.64,13.18,3.42l.16,1.75q-3.21,9.28-7.15,10.95l-12,9.69c-9,5.87-13.82,8.81-14.61,8.89-14.29,7.86-23.18,11.91-26.68,12.23l-.47.07Q222.93,284.15,241.51,247.5Zm12.94-5.16.08.48-1.91.16-.07-.48Zm43.27-2L298,244c-.48.87-.88,1.35-1.35,1.43l-.56-6.19C297.16,239.57,297.72,240,297.72,240.36Zm-73.28,31.12c-.63,3-1.27,4.61-1.9,4.61v-.4C222.3,274.26,222.93,272.83,224.44,271.48Zm12,17q5.23-.95,28.82-15.08l.08.87c0,.4-1.27,1.59-4.05,3.49-7.94,4-12.7,6.59-14.13,7.94-8.66,3-12.94,4.92-12.87,5.64-7.7,3-12.7,5.24-15.16,6.67a4.5,4.5,0,0,1-2.46-.72,3.77,3.77,0,0,1,2.06-3.73,8.67,8.67,0,0,1,3.81.56,44,44,0,0,1,7.47-2.46l-.08-.88L227,291c.32-.55,3.1-1.82,8.26-3.89l1.43-.16v.4c-2.46.24-3.81.95-4.13,2.22a.83.83,0,0,0,1,.8c2-1,2.86-1.67,2.86-1.91Zm-14.85-10.88v.4a.81.81,0,0,1-.87,1l-.08-.47C220.63,278.15,221,277.75,221.58,277.59Zm22.55,6.2c-1.11.08-3.26,1-6.43,2.78l-.48.07-.08-.87a9.63,9.63,0,0,0,6-2.7C243.73,283,244.05,283.23,244.13,283.79Zm-23.34,6.51,1.43-.16.08.47a4.12,4.12,0,0,0-1.43.56l-1,.08C219.84,290.77,220.15,290.46,220.79,290.3Zm-9.61,5.32.95.39c-.31,2.78-1.19,4.21-2.46,4.29a6.21,6.21,0,0,0-2.93-.64l-.08-1.34c-.08-.48.23-.8.87-1s.95.4,1,1.27A19,19,0,0,1,211.18,295.62ZM55.49,182.17A172.28,172.28,0,0,1,37,193.84l.08,1.19a4.93,4.93,0,0,0,1.82-.72c.8-.08,1.27.24,1.27,1l1.27-.71.64-.08.08.56c.08.55-4.29,4-12.94,10.08l.71,1.11-.63.08L28,205.9c0,.4-.56.64-1.83.72l.08.63,1.43,1.59a5.07,5.07,0,0,1-1.91-.4c-2.78.24-5.55,2.31-8.25,6.12l.71,1.11c2.38-2.15,3.73-3.26,4.13-3.26l.16,1.75a5.68,5.68,0,0,0-1.83.71l1.51,2.23a44.11,44.11,0,0,1,9.45-7.86c1.74.47,2.62.95,2.62,1.59l1.27-.08a100.76,100.76,0,0,1,27.63-14.93L63.2,197c-1.67,2.54-2.86,3.81-3.5,3.89a4.77,4.77,0,0,0,.88,2.3c.15,1.59-4,12-12.39,31.36Q19.38,302,0,334.28A4.83,4.83,0,0,0,.71,336c3.18-.8,5.24-1.51,6.12-2.31l.71-.08.08,1.2,1.19-.08,1.27-.72c0,.4.48.56,1.27.48l.08,1.19c.08,1.19-.55,3-2.06,5.48-1.35,1.51-2.7,4.6-4.21,9.29l.08.55L6.43,351a76.14,76.14,0,0,0,11.83-17.07c15.16-4.44,26.68-8.81,34.69-13.1,8-.71,14.22-2.78,18.34-6.27l-.08-.63-3,.87-.72.08-.08-.64c5.88-.87,10-2.22,12.23-4,11.51-8.89,20.17-15.16,26-18.89,18.18-13.34,26.76-26.2,25.72-38.43-.08-1.27-4.13-6.27-12-15-.16-1.67,2.62-4.05,8.17-7.23l15.8-13.89c3.49-4.53,5.64-11.83,6.35-21.91l-.24-2.38c-.63-7.07-5.71-12.79-15.4-17.15q-8.57-5.84-30.72-6.2C91.22,170.26,75.18,174.54,55.49,182.17Zm85.11,1-.47,1.19L122.5,177Q140.13,177.72,140.6,183.2ZM69.31,232.1c1.19-6.51,2.54-10.24,4-11.11l13.18-29.62c-.16-1.82,2.62-3.25,8.41-4.2l1.91-.16.16,1.67c5.71-.88,9.21-1.35,10.56-1.51,10.48-.88,15.87,1.19,16.35,6.35l1.19-.08-.24-3,1.27-.08c3.1,1.67,4.77,3.73,4.93,6.2.15,1.66-.72,3.73-2.7,6.19-.8.08-1.27-.48-1.35-1.67l-1.27.08-.32,3.57c-5.32,7.94-9.13,12-11.51,12.23-2.15,2.94-3.5,4.44-4.05,4.52-1.67,2-6.19,5.4-13.66,10.17-2.46.23-11.59,3.73-27.39,10.63a4.59,4.59,0,0,0-2.54-.39l-.08-1.11C66.05,238.45,67,235.6,69.31,232.1Zm73-36.52.08,1.11c-.64.08-1.83-1.82-3.57-5.63L138.7,190C139.81,189.79,141,191.69,142.27,195.58ZM26.36,209.71l.08.56a5.68,5.68,0,0,0-1.83.71l-.63.08L23.9,210Zm38.34-1,.16,1.75c-.55.08-1.35.87-2.3,2.54l-.08-1.19c1.11-1.35,1.67-2.38,1.67-3.1Zm-5.87,12.39.24,2.38-.64.08-.24-2.38Zm-1.51,4.28c-.16,2-.63,3-1.67,3.1l-.63.08a6.1,6.1,0,0,0,1-3Zm-2.62,6.2.08.55-1.11,1.91-1.19.08-.08-.56a1.58,1.58,0,0,0,1.67-1.9ZM52,237.18l-.32,2.94-.63.08-.24-2.94Zm64.39,2.15,2.62,1.58a1.11,1.11,0,0,1-1.11,1.35,5.35,5.35,0,0,0-2.62-1l-.16-1.74ZM66,246.08l.08,1.11-2.46.24-.08-1.12Zm40.65,4.12c1.75.8,2.62,1.59,2.7,2.23l.08.55c-1.67.16-3.17-.71-4.6-2.62Zm-52.4,12.87q10.72-1,33.75-10l3.73-.32c7.78-.63,13.57.8,17.38,4.45l.24,2.38c-2.86,8.26-6,13-9.45,14.53L84,286.72c-11.83,7.78-18.18,11.67-19.14,11.75-18.81,10.4-30.56,15.72-35.09,16.12l-.71.08C29.69,312.45,38,295.3,54.22,263.07Zm17.15-6.75.08.55-2.54.24-.08-.55Zm57-2.54.39,4.68c-.55,1.27-1.11,1.91-1.74,1.91l-.72-8.26C127.66,252.66,128.3,253.22,128.38,253.78Zm-96.62,41c-.8,4.05-1.67,6.12-2.54,6.2l-.08-.56C29,298.32,29.85,296.49,31.76,294.74Zm15.88,22.39c4.6-.87,17.22-7.54,37.94-19.85l.08,1.11c.08.48-1.74,2-5.32,4.61-10.55,5.16-16.75,8.73-18.57,10.56-11.44,4-17.07,6.43-17,7.38q-15.26,6.07-20,8.81a7.2,7.2,0,0,1-3.25-.87,5.29,5.29,0,0,1,2.77-5.08,10.11,10.11,0,0,1,5.08.79,49.46,49.46,0,0,1,9.85-3.17l-.08-1.19-3.73.31c.48-.63,4.05-2.3,10.88-5.08l1.9-.15.08.55c-3.18.24-5,1.27-5.4,2.94a1,1,0,0,0,1.27,1C46.44,318.24,47.64,317.37,47.64,317.13ZM28.1,302.76l.08.56a1.11,1.11,0,0,1-1.11,1.35l-.08-.56A1.19,1.19,0,0,1,28.1,302.76Zm29.7,8.1c-1.51.16-4.29,1.35-8.5,3.73l-.63.08-.08-1.19a12.1,12.1,0,0,0,7.78-3.57C57.24,309.75,57.72,310.14,57.8,310.86ZM27,319.43l1.91-.16.08.64a5.09,5.09,0,0,0-1.83.71L26,320.7C25.88,320.15,26.2,319.67,27,319.43ZM14.37,326.5l1.35.56c-.48,3.57-1.51,5.39-3.33,5.55a8.2,8.2,0,0,0-3.9-.79l-.15-1.75c-.08-.71.31-1.11,1.19-1.35.79-.08,1.27.48,1.35,1.67A25.81,25.81,0,0,1,14.37,326.5Zm352.18-156-1-.39-16.91,2.62a4.26,4.26,0,0,0-2.3-.4,31.76,31.76,0,0,0-4.53,1l-8.18,3.42.64,1a4,4,0,0,0,1.67-.64l2.85.24-.39,2.7c-2.62,1.19-4.21,2.94-4.61,5.24q-6,2.63-5.95,3.81l.08.48.63-.08,1.11-.56,1.27,1.51.16,2.07q.12.94-20.16,42.55-17.5,40-18.42,43.9c-4,1.12-6.35,2.78-7,4.93.08.71,1.27,1.11,3.58,1.35l.07,1-1,1.74.16,2.07c.08,1.11,3,1.9,8.73,2.54,0-.4.16-.56.56-.64a32.39,32.39,0,0,1-1.11,7.63l.63-.08c2.39-3.26,3.5-5.48,3.42-6.75l.47-.08c.56-.08,1.2.63,1.91,2.06-.71.32-3.26,6-7.54,17.23l.63,1,.64-.08c5.32-13.41,8.65-20.88,10-22.31,7-.63,19-1.82,36.12-3.65l1-.63c0,.39.23.55.63.47l1.11-.08,1-.63c0,.4.24.55.64.48l12.94-1.12c3.41-.31,5.08-1.35,4.92-3.09-.08-.48,2-1,6.12-1.59a6.19,6.19,0,0,1,1.74.32c0-.32,2-.64,6.12-1,.08-2.15.79-3.34,2.06-3.42l-.08-1a18.56,18.56,0,0,0-4,.87,21.42,21.42,0,0,1-5.16-.63,4.07,4.07,0,0,1-1.67.63l-9.05.32-1.11.56c0-.32-.24-.48-.63-.4l-.48.08-1.19.55c0-.31-.95-.55-2.86-.79l-1.11.64-2.22.15-.08-.55c11.59-1.27,17.38-2.86,17.23-4.77a1,1,0,0,1,1.19,1l3.41-.88-.08-1-27.79.8c0,.39-.16.55-.55.63l-3.42-.32a3.68,3.68,0,0,0-2.14.8l-1.27-.48a40.93,40.93,0,0,0-7.86,1.27,53.22,53.22,0,0,0-7.94.08l-6.27.56-2.86-.32c-.16-1.83,3.41-10.88,10.8-27.15,2.14-5.48,4.13-8.9,5.95-10.17a4.65,4.65,0,0,1,1.75.4l4.45-1.51,2.3.4a53.86,53.86,0,0,0,13.34-3.26,7.4,7.4,0,0,1,2.85.24l3.42-.79,10.08-.87a71.73,71.73,0,0,0,14-2.86l-.08-1c-1.9.15-2.85-.16-2.93-.88-.16-1.43-1.51-2-4.13-1.74l-.08-1,2.78-.79,7.3-.64-.08-1c-.32,0-1.74,0-4.52-.08l-.08-1.11,2.86-.24c.71-.08,1.11-.47,1-1.11-3.81.08-5.72-.08-5.72-.55-26.44,1.27-39.62,1.5-39.69.71A3.4,3.4,0,0,0,337,220l-.72-1.12c7-14.84,11.12-22.38,12.31-22.46a5.85,5.85,0,0,1-.87,2.77l.08.48,1.11-.08c2.78-6.67,5.08-10.08,7.06-10.24,8.26-.71-1.19-1.27,16.6-4a3,3,0,0,0,1.58.4c7-1.43,16.68-2.86,29.14-4.37l-.08-1-6.67.63-.08-1a3.47,3.47,0,0,0,2-.79l.08.55a2.74,2.74,0,0,0,1.5-.71,5.1,5.1,0,0,1,2.62.32,34.26,34.26,0,0,1,5.56-1.11l4.13-.4c1-.64,1.51-1.19,1.43-1.75v-.47a15.16,15.16,0,0,1-3.65-.24c-.08-.56.24-1,.95-1.11l7.7-.72,3.57-.87c0,.4.24.55.48.55a2.76,2.76,0,0,0,1.51-.71,14.53,14.53,0,0,0,3.17.24,15.51,15.51,0,0,1,4.93-3.18,3.83,3.83,0,0,1-1.27-2L426,168a4.69,4.69,0,0,0-.56-1.58c0-.48,1.11-1,3.49-1.43l1,.39.95-.55c0,.32.24.47.55.39l1-.55a.4.4,0,0,0,.55.4l.48-.08-.08-1c-.71.08-2.62.08-5.64,0l-.95.64-.08-.56c-24.21,2-38,3.1-41.2,3.42-.4,0-2.15,0-5.08-.08,0,.4-.32.63-1,.63l-1-.47-3.57.87a29.06,29.06,0,0,1-4.21-.16,4,4,0,0,1-2,.8c-.8.07,19.21-1.12,18.57-1.43l-3.09.87-.48.08a25.12,25.12,0,0,1-4.76-.16,4.79,4.79,0,0,1-2.54.79,3.53,3.53,0,0,1-2.07-.39c-.87.24-3.41.87-7.7,1.66Zm1.27,3.18c0,.4.4.56,1,.48l.08,1-1,.08a3.42,3.42,0,0,1-2.06-.4,3.55,3.55,0,0,1-2,.79h.32l-2.86-.31-.08-.48A25,25,0,0,0,367.82,173.67Zm2.62-.24.56-.08.08,1-1.59.16A1,1,0,0,1,370.44,173.43Zm6.12-.63.07.55a20.92,20.92,0,0,0-4.52,1l-.56.07.48-1.11ZM331.46,178l1.75-.16-.08-1-1.75.16Zm12.47-1.11.63-.08,1.19.47a.92.92,0,0,1-1,1.11l-1.75.16-.08-.55C342.81,177.4,343.21,177.08,343.93,176.85Zm39.93,2.3v.47l-3.57.32v-.47Zm-10.24,1.51.08.55-2.07.16-.08-.55Zm9.84.79,7.15-1.19,3.65.16.08.55a17.33,17.33,0,0,0-4.53,1c0-.4-.71-.72-2.14-.88L382,182.64c-1.11-.63-1.66-1.11-1.66-1.43ZM376.4,183c.71-.08,1,.24,1.11,1l-3,.32-.08-1Zm-6.28-.32.08.56,18.58-.88-.08-.55Zm1.12,1.43v.48l-4.05.39v-.47Zm-26.6,21,.08.55,1.19-.07a4,4,0,0,1,.4-1.67l-.08-1C345.59,203.05,345,203.76,344.64,205.19Zm-40.89,59.38.08.48c.08.71-.32,1.11-1.11,1.19l-.08-.48C302.56,265.13,303,264.81,303.75,264.57Zm-1,2.23c.08,1-.63,3.57-2.06,7.7l-1.75.16c-.08-.72.87-3.26,2.7-7.7Zm19.13,16.59c.08.56-.87,1.19-2.7,1.83l-3.49-.24-1.11.08-.08-1Zm3.42.32.08.47-2.86.24-.08-.47Z"/></g></g></g></svg>