<svg xmlns="http://www.w3.org/2000/svg" viewBox="0 0 512 512"><defs><style>.cls-1{fill:red;}</style></defs><title>css</title><g id="Layer_2" data-name="Layer 2"><g id="css"><rect class="cls-1" width="512" height="512"/><path d="M503.47,187.73H409.6v-76.8c0-.09,0-.17,0-.26s0-.22,0-.34a6.8,6.8,0,0,0-.13-1,.13.13,0,0,0,0-.06,8.11,8.11,0,0,0-.3-1.1,1.46,1.46,0,0,0-.07-.19,8.32,8.32,0,0,0-.44-1l0,0a8.93,8.93,0,0,0-.61-1,1.83,1.83,0,0,0-.13-.16,7,7,0,0,0-.79-.92L304.73,2.54a7.84,7.84,0,0,0-.92-.81l-.15-.11A8.64,8.64,0,0,0,301.6.53l-.13-.05A8.47,8.47,0,0,0,299.21,0H299l-.31,0H8.53A8.52,8.52,0,0,0,0,8.53V503.47A8.52,8.52,0,0,0,8.53,512H401.07a8.52,8.52,0,0,0,8.53-8.53V409.6h93.87a8.52,8.52,0,0,0,8.53-8.53V196.27A8.53,8.53,0,0,0,503.47,187.73Zm-123-85.33H307.2V29.13Zm12.06,392.53H17.07V17.07H290.13v93.86a8.54,8.54,0,0,0,8.54,8.54h93.86v68.26H102.4a8.53,8.53,0,0,0-8.53,8.54v204.8a8.52,8.52,0,0,0,8.53,8.53H392.53Zm102.4-102.4h-384V204.8h384V392.53Z"/><path d="M324.27,238.93a25.64,25.64,0,0,1,25.6,25.6,8.53,8.53,0,1,0,17.06,0,42.67,42.67,0,1,0-42.66,42.67,25.6,25.6,0,1,1-25.6,25.6,8.54,8.54,0,0,0-17.07,0,42.67,42.67,0,1,0,42.67-42.67,25.6,25.6,0,1,1,0-51.2Z"/><path d="M435.2,307.2a25.6,25.6,0,1,1-25.6,25.6,8.54,8.54,0,0,0-17.07,0,42.67,42.67,0,1,0,42.67-42.67,25.6,25.6,0,1,1,25.6-25.6,8.54,8.54,0,1,0,17.07,0A42.67,42.67,0,1,0,435.2,307.2Z"/><path d="M242.14,345.3a59.13,59.13,0,0,1-37.34,13.1,59.74,59.74,0,0,1,0-119.47A59.08,59.08,0,0,1,242.13,252a8.53,8.53,0,0,0,10.68-13.31,76.8,76.8,0,1,0,0,119.9,8.53,8.53,0,0,0-10.67-13.32Z"/></g></g></svg>