<svg xmlns="http://www.w3.org/2000/svg" viewBox="0 0 512.12 512"><defs><style>.cls-1{fill:red;}</style></defs><title>ds</title><g id="Layer_2" data-name="Layer 2"><g id="ds"><rect class="cls-1" width="512" height="512"/><g id="BdsJ21.tif"><path d="M122.71,299.25c-30.39-19.36-45.4-48.64-55-81.91-7.19-25-24.32-42.62-46.58-55.62a31.79,31.79,0,0,0-6.29-2.48c-3.46-1.12-9.36,4-10-4.26-.59-7.18,2-12.47,8.47-15.38,14.48-6.53,28.31-4.26,41.3,4.12,4.09,2.64,7.72,6,12,9.35,2.74-7.91,3.77-15.51,8.25-21.78C81.55,122,90.69,118,102,119.32c6.23.72,10,3.4,3.86,9.33-8.93,8.7-10.23,19.71-9.67,31.16,1,20.71,4,41.07,12.55,60.25,4.26,9.55,9.92,18.08,19.89,25.1,5.81-12.8,20.75-18,22.46-34.5,1-9.55,12.4-13.72,22.57-13.92,21.76-.44,43.41-.61,64.56,6.68,13,4.49,25.9,3.42,39.37-2.77,19.41-8.92,40.15-3,60.3-.22a63.62,63.62,0,0,1,13.24,2.94c5.91,2.18,8.6.41,11.6-5,7.54-13.75,20.73-14.42,34.41-12.53,13.31,1.83,21.94,9.61,23.31,22.6,1.11,10.59,6.12,12.3,15.57,12.93,35,2.33,50.8,19.53,51.91,54.56,1,30.14,4,60,12.26,89.19,2.22,7.85,5.19,15.26,12,22.7-22.53,6.6-44.75,8.92-66.94,10.64-15.75,1.23-31.65,2.18-47.4-1.55-11.24-2.66-15.92-7.6-12.86-20,3.73-15.08,5.25-30.68,7.72-46.05-59.19,8.25-117,1.18-174.78,1.3-7.44,0-12.64-.29-17.63,7.57-8.33,13.09-29.26,12.39-41.5-.6-4.7-5-7.62-6.63-14.23-2.91-8,4.52-17.61,4.07-26.65,3-11.69-1.38-19.54-7.34-19.72-19.95-.18-12.87,7.6-18.37,19.58-19.52,1.79-.18,3.56-.46,5.34-.69-1.68,2-3.77,3.82-5,6.1-2.67,5.16-1.48,9.71,4.12,11.87,6.88,2.66,8.05-2.74,9.68-7.47C135,300.59,128.21,300.54,122.71,299.25Zm79.37-95.59c13.4,19.86,14.91,37,1.52,49.76-10.52,10-3,11.74,4.05,14.78,28.31,12.25,58.62,14.29,88.84,16.3,22.69,1.51,33.26,14.54,28.05,36.57-1.23,5.21-1.12,7.43,4.85,7.4,14-.09,28.12.78,42.05-1.58,20.3-3.44,24.63-9.32,22.28-29.58-1.38-12,4.62-17.32,16.69-14.53,11.79,2.73,17.41,10.84,17.84,22.35.44,11.66.48,23.36.06,35-.27,7.27,2.9,9.93,9.65,9.12,12.56-1.5,25.05-3.93,37.64-4.57,11.4-.58,12.06-6.33,10.56-15.21a354.37,354.37,0,0,1-4.83-54.93c-.37-30.54-19.46-48.39-50.06-47.51-4.56.14-7,1.1-8.81,6-5.38,14.5-17.6,20.83-32.09,23.75-15.35,3.1-30.7-1.52-46,0-3.86.39-7.76-1-11.49,2.19-23.21,20-23.28,19.94-49,1.61-1.07-.76-2.5-1-3.71-1.55-15.85-7.56-22.47-19.92-19.9-37.2.49-3.34,1.92-8.12-3.6-8.4C238.45,212.58,222,202.85,202.08,203.66Zm64.78,103.83c-17.22,7.17-54.83,4.11-73-6.95-12.2-7.41-12.77,3.44-16.25,8.46-5.12,7.41-.09,12,7,13.36,40.8,8,81.94,7.37,123.1,3.81,8.07-.69,11.25-6.47,11.2-14.29-.09-13-8.79-20.52-24.42-20.82-38.42-.74-75.74-5.77-109.18-26.69a50.22,50.22,0,0,0-23.12-7.15c-18.75-1.37-30.12,9.53-27.16,25.71,20.71-12.89,34-11.86,51.73,5.47,10.3,10.06,22.54,14.3,36.34,16.27C237.59,306.74,252.28,306.46,266.86,307.49Zm-157.52-.81c-2.34,2.92-4.24,4.37-4.9,6.26-3.44,9.84,1.17,18.18,11.11,20.66,15.64,3.9,32.68-1.15,33.74-10.77.55-5.07,4.57-12.42-2.22-15.66-8.95-4.27-9.47,4.15-12.17,9.55-3.83,7.64-10.09,7.82-17.12,4C112.76,318,111.87,312.57,109.34,306.68Zm72.29,37.13c1.85-.45,5.5-.88,8.75-2.25,3.74-1.57,8.28-4.47,7-8.6s-6-1.61-9.4-1.11c-11.43,1.66-18.05-4.19-18.92-16.5-.24-3.46,3-8.05-4.36-8.48-6.24-.37-7.5,3-8.57,7.76C152.93,328.74,164.83,343.44,181.63,343.81ZM288.1,247.33c-.11,12,10.47,22.26,21.57,20.64,2.92-.43,6.63-.32,6.43-5.08-.19-4.29-2.5-4.79-6.28-4.65-7.59.26-12.76-3.81-11.74-11.28,1.06-7.79,6.56-11.75,14.82-8.31,4.25,1.77,5.78-.06,6.81-3.55,1.32-4.45-2.14-5.15-5-6.24C302.19,224.16,288.22,233.88,288.1,247.33Zm122.06,64.12c-12.13-4.69-9.06,4.81-10.52,10.67-2.43,9.75,4.68,8.93,10.28,9.3,6.12.39,12.76,1.9,12.45-8.58C422.1,314,420.39,308.78,410.16,311.45Zm-1.07,24.83c-3.41,3.24-11.6-3.7-11.63,4.42,0,8.82,9.12,6.16,14.72,7.16,4.25.75,9.77,2,9.55-5.34C421.43,332.69,413.26,339.6,409.09,336.28Zm2.66-31.52c2-1.51,8.32,2.58,7.73-4.61-.58-7-5.74-9.34-12.13-9.91-5.22-.47-6.84,1.78-7.13,6.87C399.72,305.74,405.54,304.62,411.75,304.76Z"/></g></g></g></svg>