<svg xmlns="http://www.w3.org/2000/svg" viewBox="0 0 512 512"><defs><style>.cls-1{fill:red;}</style></defs><title>html</title><g id="Layer_2" data-name="Layer 2"><g id="html"><rect class="cls-1" width="512" height="512"/><path d="M486.4,0H25.6A25.64,25.64,0,0,0,0,25.6V486.4A25.64,25.64,0,0,0,25.6,512H486.4A25.64,25.64,0,0,0,512,486.4V25.6A25.64,25.64,0,0,0,486.4,0ZM17.07,25.6a8.54,8.54,0,0,1,8.53-8.53H486.4a8.54,8.54,0,0,1,8.53,8.53V68.27H17.07ZM494.93,486.4a8.54,8.54,0,0,1-8.53,8.53H25.6a8.54,8.54,0,0,1-8.53-8.53V85.33H494.93V486.4Z"/><circle cx="42.67" cy="42.67" r="8.53"/><circle cx="76.8" cy="42.67" r="8.53"/><circle cx="110.93" cy="42.67" r="8.53"/><path d="M78.39,363.36a8.53,8.53,0,1,0,13.89-9.92L53.15,298.67l39.13-54.78A8.53,8.53,0,0,0,78.39,234L35.72,293.71a8.53,8.53,0,0,0,0,9.92Z"/><path d="M421.71,365.35a8.55,8.55,0,0,0,11.9-2l42.67-59.74a8.52,8.52,0,0,0,0-9.91L433.61,234a8.53,8.53,0,1,0-13.89,9.91l39.13,54.78-39.13,54.77A8.54,8.54,0,0,0,421.71,365.35Z"/><path d="M110.93,341.33a8.54,8.54,0,0,0,8.54-8.53V307.2H153.6v25.6a8.54,8.54,0,0,0,17.07,0V264.53a8.54,8.54,0,0,0-17.07,0v25.6H119.47v-25.6a8.54,8.54,0,0,0-17.07,0V332.8A8.53,8.53,0,0,0,110.93,341.33Z"/><path d="M196.27,273.07h17.06V332.8a8.54,8.54,0,0,0,17.07,0V273.07h17.07a8.54,8.54,0,0,0,0-17.07h-51.2a8.54,8.54,0,1,0,0,17.07Z"/><path d="M281.6,341.33a8.53,8.53,0,0,0,8.53-8.53V290.13l10.24,13.66c3.22,4.3,10.44,4.3,13.66,0l10.24-13.66V332.8a8.53,8.53,0,1,0,17.06,0V264.53A8.53,8.53,0,0,0,326,259.41l-18.77,25-18.77-25a8.54,8.54,0,0,0-15.36,5.12V332.8A8.53,8.53,0,0,0,281.6,341.33Z"/><path d="M366.93,341.33h34.14a8.53,8.53,0,1,0,0-17.06h-25.6V264.53a8.54,8.54,0,0,0-17.07,0V332.8A8.53,8.53,0,0,0,366.93,341.33Z"/></g></g></svg>