<svg xmlns="http://www.w3.org/2000/svg" viewBox="0 0 512 512"><defs><style>.cls-1{fill:red;}</style></defs><title>js</title><g id="Layer_2" data-name="Layer 2"><g id="js"><rect class="cls-1" width="512" height="512"/><path d="M375.47,264.53a42.71,42.71,0,0,0,42.66,42.67,25.6,25.6,0,1,1-25.6,25.6,8.53,8.53,0,1,0-17.06,0,42.67,42.67,0,1,0,42.67-42.67,25.6,25.6,0,1,1,25.6-25.6,8.53,8.53,0,1,0,17.06,0,42.67,42.67,0,0,0-85.33,0Z"/><path d="M503.47,187.73H409.6v-76.8c0-.09,0-.17,0-.26s0-.22,0-.34a6.8,6.8,0,0,0-.13-1,.13.13,0,0,0,0-.06,8.11,8.11,0,0,0-.3-1.1,1.46,1.46,0,0,0-.07-.19,8.32,8.32,0,0,0-.44-1l0,0a8.93,8.93,0,0,0-.61-1,1.83,1.83,0,0,0-.13-.16,7,7,0,0,0-.79-.92L304.73,2.54a7.49,7.49,0,0,0-.9-.79l-.19-.14a7.82,7.82,0,0,0-1-.61l-.05,0a8.18,8.18,0,0,0-1-.44l-.18-.07A8.66,8.66,0,0,0,299.23,0H299l-.32,0H8.53A8.52,8.52,0,0,0,0,8.53V503.47A8.52,8.52,0,0,0,8.53,512H401.07a8.52,8.52,0,0,0,8.53-8.53V409.6h93.87a8.52,8.52,0,0,0,8.53-8.53V196.27A8.53,8.53,0,0,0,503.47,187.73ZM307.2,29.13l73.27,73.27H307.2Zm85.33,465.8H17.07V17.07H290.13v93.86a8.54,8.54,0,0,0,8.54,8.54h93.86v68.26H230.4a8.53,8.53,0,0,0-8.53,8.54v204.8a8.52,8.52,0,0,0,8.53,8.53H392.53Zm102.4-102.4h-256V204.8h256Z"/><path d="M332.8,221.87a8.52,8.52,0,0,0-8.53,8.53V332.8a17.07,17.07,0,0,1-34.14,0,8.53,8.53,0,1,0-17.06,0,34.13,34.13,0,0,0,68.26,0V230.4A8.52,8.52,0,0,0,332.8,221.87Z"/></g></g></svg>