<svg xmlns="http://www.w3.org/2000/svg" viewBox="0 0 512 512"><defs><style>.cls-1{fill:red;}.cls-2{fill:#050706;}</style></defs><title>kare-bomb</title><g id="Layer_2" data-name="Layer 2"><g id="kare-bomb"><rect class="cls-1" width="512" height="512"/><rect class="cls-2" x="391" y="170.67" width="17" height="17.07"/><rect class="cls-2" x="323" y="153.6" width="17" height="17.07"/><rect class="cls-2" x="459" y="136.53" width="17" height="17.07"/><rect class="cls-2" x="391" y="136.53" width="17" height="17.07"/><rect class="cls-2" x="340" y="136.53" width="17" height="17.07"/><rect class="cls-2" x="442" y="119.47" width="17" height="17.07"/><path class="cls-2" d="M323,102.4H306v17.07h51V102.4Z"/><path class="cls-2" d="M153,119.47V153.6H102v51.2H68v17.07H34V256H17v34.13H0V409.6H17v34.13H34v34.14H68v17.06h34V512H221V494.93h34V477.87h34V443.73h17V409.6h17V290.13H306V256H289V221.87H255V204.8H221V153.6H170V102.4H153ZM51,358.4V324.27H68v51.2H51Zm17-68.27H85V307.2H68Zm0,102.4H85V409.6H68Zm34,34.14h17v17.06H102Z"/><path class="cls-2" d="M374,85.33H357V102.4h51V85.33Z"/><path class="cls-2" d="M289,85.33H272V102.4h34V85.33Z"/><rect class="cls-2" x="170" y="85.33" width="17" height="17.07"/><rect class="cls-2" x="476" y="68.27" width="17" height="17.07"/><rect class="cls-2" x="442" y="68.27" width="17" height="17.07"/><path class="cls-2" d="M255,68.27H187V85.33h85V68.27Z"/><rect class="cls-2" x="340" y="51.2" width="17" height="17.07"/><rect class="cls-2" x="374" y="34.13" width="17" height="17.07"/><rect class="cls-2" x="306" y="34.13" width="17" height="17.07"/><rect class="cls-2" x="425" y="17.07" width="17" height="17.07"/><rect class="cls-2" x="442" width="17" height="17.07"/><rect class="cls-2" x="357" width="17" height="17.07"/></g></g></svg>