<svg xmlns="http://www.w3.org/2000/svg" viewBox="0 0 512 512"><defs><style>.cls-1{fill:red;}</style></defs><title>node</title><g id="Layer_2" data-name="Layer 2"><g id="node"><rect class="cls-1" width="512" height="512"/><path d="M256,512a41.29,41.29,0,0,1-19.76-5.17l-62.56-37.16c-9.4-5.18-4.7-7.06-1.88-8,12.7-4.23,15.06-5.17,28.23-12.7,1.41-.94,3.29-.47,4.7.47l48,28.69a6,6,0,0,0,5.64,0L446,369.48a5.4,5.4,0,0,0,2.82-5.18V147.46a5.4,5.4,0,0,0-2.82-5.17L258.35,34.1a6,6,0,0,0-5.64,0L65,142.29a5.9,5.9,0,0,0-2.82,5.17V364.3A5.91,5.91,0,0,0,65,369.48l51.27,29.63c27.75,14.11,45.16-2.35,45.16-18.81v-214a5.72,5.72,0,0,1,5.64-5.65h24a5.72,5.72,0,0,1,5.64,5.65v214c0,37.16-20.22,58.79-55.5,58.79-10.82,0-19.29,0-43.28-11.76L48.57,399.11a39.7,39.7,0,0,1-19.76-34.34V147.93a39.71,39.71,0,0,1,19.76-34.34L236.24,4.94a42,42,0,0,1,39.52,0L463.43,113.59a39.71,39.71,0,0,1,19.76,34.34V364.77a39.7,39.7,0,0,1-19.76,34.34L275.76,507.77A48.2,48.2,0,0,1,256,512Zm57.86-149.11c-82.32,0-99.25-37.63-99.25-69.61a5.72,5.72,0,0,1,5.64-5.65h24.46c2.82,0,5.18,1.88,5.18,4.71,3.76,24.93,14.58,37.16,64.44,37.16,39.51,0,56.44-8.94,56.44-30.11,0-12.23-4.7-21.16-66.32-27.28-51.27-5.17-83.26-16.46-83.26-57.39,0-38.1,32-60.67,85.61-60.67,60.21,0,89.84,20.69,93.6,65.85a7.58,7.58,0,0,1-1.41,4.23,5.8,5.8,0,0,1-3.76,1.88H370.77a5.51,5.51,0,0,1-5.17-4.23c-5.65-25.87-20.23-34.34-58.8-34.34-43.27,0-48.45,15.06-48.45,26.34,0,13.64,6.12,17.88,64.44,25.4,57.86,7.53,85.14,18.35,85.14,58.8-.47,41.39-34.34,64.91-94.07,64.91Z"/></g></g></svg>