<svg xmlns="http://www.w3.org/2000/svg" viewBox="0 0 512 512"><defs><style>.cls-1{fill:red;}</style></defs><title>osx</title><g id="Layer_2" data-name="Layer 2"><g id="osx"><rect class="cls-1" width="512" height="512"/><path d="M495.84,462H16.16A15.64,15.64,0,0,1,.52,446.31V65.7A15.65,15.65,0,0,1,16.16,50.05H495.84A15.65,15.65,0,0,1,511.48,65.7h0V446.31A15.64,15.64,0,0,1,495.84,462ZM16.16,60.48A5.22,5.22,0,0,0,11,65.7V446.31a5.21,5.21,0,0,0,5.21,5.21H495.84a5.21,5.21,0,0,0,5.21-5.21V65.7a5.22,5.22,0,0,0-5.21-5.22Z"/><path d="M323.78,512a5.22,5.22,0,0,1-4.54-2.65C288.47,455,284,391.84,285.72,348.47a427.5,427.5,0,0,1,9.54-75.26h-81A5.23,5.23,0,0,1,209,268a4,4,0,0,1,0-.6c9.24-83.27,38.82-151,62-193.15C296.23,28.52,318.9,2.83,319.85,1.75a5.22,5.22,0,1,1,7.8,6.93c-.23.26-23,26.07-47.59,70.91C258,119.92,229.93,184,220.15,262.78h81.73a5.21,5.21,0,0,1,5,6.57c-.1.33-9,34-10.78,79.78C294.52,391,298.75,452,328.32,504.22a5.21,5.21,0,0,1-4.54,7.78Z"/><path d="M259.13,373.31c-98.31,0-166.64-39.7-169.49-41.4a5.21,5.21,0,0,1,5.29-9h0c.68.4,68.83,39.94,164.2,39.94,95.54,0,166.7-39.62,167.4-40A5.22,5.22,0,0,1,432,331.8l-.3.17C428.68,333.69,357.39,373.31,259.13,373.31Zm-123-189.78a5.22,5.22,0,0,1-5.21-5.22V132.43a5.22,5.22,0,0,1,10.43,0v45.88A5.22,5.22,0,0,1,136.08,183.53Zm223.15,0a5.22,5.22,0,0,1-5.21-5.22V132.43a5.22,5.22,0,0,1,10.43,0v45.88A5.22,5.22,0,0,1,359.23,183.53Z"/></g></g></svg>