<svg xmlns="http://www.w3.org/2000/svg" viewBox="0 0 512 512"><defs><style>.cls-1{fill:red;}</style></defs><title>sass</title><g id="Layer_2" data-name="Layer 2"><g id="sass"><rect class="cls-1" width="512" height="512"/><path d="M440.87,284.74a106.07,106.07,0,0,0-46.38,10.76c-4.77-9.45-9.54-17.86-10.38-24-.94-7.2-2.06-11.59-.94-20.2s6.17-20.85,6.08-21.79-1.12-5.33-11.41-5.42-19.17,2-20.2,4.68a112.61,112.61,0,0,0-4.3,15.24c-1.78,9.35-20.58,42.74-31.33,60.23-3.46-6.83-6.45-12.82-7.11-17.59-.93-7.2-2.06-11.59-.93-20.2s6.17-20.85,6.08-21.79-1.13-5.33-11.41-5.42-19.17,2-20.2,4.68-2.15,9.07-4.31,15.24S257,321,250.47,335.43c-3.37,7.39-6.27,13.28-8.33,17.3h0a4.12,4.12,0,0,1-.37.75c-1.78,3.46-2.81,5.33-2.81,5.33v.09c-1.4,2.53-2.89,4.87-3.64,4.87-.56,0-1.59-6.74.18-15.9,3.75-19.36,12.63-49.47,12.54-50.5,0-.56,1.68-5.8-5.8-8.51-7.3-2.71-9.91,1.78-10.57,1.78s-1.12,1.59-1.12,1.59,8.13-33.86-15.53-33.86c-14.77,0-35.16,16.18-45.26,30.77-6.36,3.46-19.92,10.85-34.41,18.8-5.52,3.08-11.23,6.17-16.56,9.07-.37-.38-.74-.84-1.12-1.22-28.62-30.58-81.55-52.18-79.3-93.24.84-15,6-54.24,101.65-101.93,78.74-38.81,141.4-28.06,152.25-4.21,15.52,34-33.57,97.26-114.93,106.42-31.05,3.47-47.32-8.51-51.44-13-4.3-4.68-5-5-6.55-4-2.61,1.41-.93,5.62,0,8.05,2.44,6.36,12.44,17.58,29.37,23.1,15,4.86,51.34,7.57,95.39-9.45,49.28-19.08,87.81-72.1,76.5-116.52C309.29,65.91,234.48,51,163.68,76.2,121.6,91.16,76,114.73,43.14,145.4,4.14,181.87-2,213.58.49,226.86,9.56,274,74.56,304.66,100.56,327.39c-1.31.75-2.53,1.4-3.56,2-13,6.46-62.56,32.36-74.91,59.76-14,31.05,2.25,53.31,13,56.3,33.39,9.26,67.71-7.39,86.13-34.88s16.18-63.22,7.67-79.59a1.93,1.93,0,0,0-.37-.56c3.37-2,6.83-4,10.19-6,6.64-3.93,13.19-7.58,18.8-10.57-3.18,8.7-5.52,19.08-6.64,34-1.4,17.58,5.8,40.4,15.24,49.38,4.21,3.93,9.17,4,12.35,4,11,0,16-9.17,21.51-20,6.73-13.28,12.81-28.71,12.81-28.71s-7.58,41.7,13,41.7c7.48,0,15.06-9.72,18.42-14.68v.1s.19-.28.56-.94c.75-1.22,1.22-2,1.22-2v-.19c3-5.24,9.72-17.11,19.73-36.85,12.91-25.43,25.34-57.23,25.34-57.23a164.16,164.16,0,0,0,5,20.67c2.25,7.57,6.92,15.9,10.66,23.94-3,4.21-4.86,6.54-4.86,6.54l.09.1c-2.43,3.18-5,6.64-7.95,10-10.19,12.16-22.35,26.1-24,30.12-2,4.77-1.5,8.23,2.24,11,2.72,2.06,7.58,2.34,12.54,2.06a57.49,57.49,0,0,0,18.79-4.3,63.11,63.11,0,0,0,16.18-8.51c10-7.39,16.09-18,15.53-31.89-.28-7.67-2.81-15.34-5.9-22.54.94-1.31,1.78-2.62,2.72-3.93a428.87,428.87,0,0,0,28.05-48.44A161.93,161.93,0,0,0,365,288c1.87,6.54,5.7,13.65,9.07,20.57-14.87,12.07-24,26.09-27.31,35.26-5.89,17-1.31,24.69,7.39,26.46,3.93.85,9.54-1,13.65-2.8a61.85,61.85,0,0,0,17.3-8.89c10-7.38,19.64-17.67,19.08-31.61a59.73,59.73,0,0,0-4.3-18.7c12.63-5.24,28.9-8.14,49.66-5.7,44.51,5.23,53.3,33,51.62,44.7s-11,18.05-14.12,20-4.11,2.62-3.83,4c.37,2.06,1.87,2,4.48,1.59,3.65-.65,23.38-9.44,24.23-30.95C513.35,314.48,487.16,284.46,440.87,284.74ZM97.47,400.52c-14.77,16.09-35.35,22.16-44.23,17-9.54-5.52-5.8-29.27,12.34-46.29,11-10.38,25.25-20,34.7-25.91,2.15-1.3,5.33-3.18,9.16-5.51.66-.38,1-.56,1-.56h0l2.24-1.41C119.35,362.18,113,383.59,97.47,400.52ZM205,327.39c-5.15,12.53-15.9,44.61-22.45,42.83-5.61-1.5-9.07-25.81-1.12-49.85,4-12.06,12.53-26.46,17.49-32.07,8-9,16.93-12,19.08-8.33C220.73,284.74,208.2,319.53,205,327.39Zm88.75,42.46c-2.15,1.12-4.21,1.87-5.15,1.31-.65-.38.94-1.87.94-1.87s11.13-12,15.52-17.4c2.53-3.18,5.52-6.92,8.7-11.13V342C313.78,356.29,299.94,365.92,293.77,369.85Zm68.45-15.62c-1.59-1.12-1.31-4.86,4-16.55,2.06-4.59,6.92-12.26,15.25-19.64a26.4,26.4,0,0,1,1.49,8.6C382.89,344.69,370,351.42,362.22,354.23Z"/></g></g></svg>