<svg xmlns="http://www.w3.org/2000/svg" viewBox="0 0 512 512"><defs><style>.cls-1{fill:red;}</style></defs><title>storybook</title><g id="Layer_2" data-name="Layer 2"><g id="storybook"><rect class="cls-1" width="512" height="512"/><path d="M461.42,24.14A25.73,25.73,0,0,0,434.13.05L405.87,1.82l2.06,59.08a3.84,3.84,0,0,1-3.7,4,3.78,3.78,0,0,1-2.52-.82l-19-15-22.54,17.1A3.84,3.84,0,0,1,354,62.93h0l2.41-58L74.66,22.52A25.75,25.75,0,0,0,50.54,49.18L66.4,471.79A25.75,25.75,0,0,0,91,496.54L434.58,512c.38,0,.77,0,1.15,0a25.73,25.73,0,0,0,25.74-25.74V25.74C461.47,25.21,461.46,24.67,461.42,24.14ZM265.66,415c-61.31,0-114.89-24.81-108.84-110.8,2.38-10.1,80.32-7.7,80.32,0-.95,35.48,7.13,45.92,27.57,45.92,15.68,0,22.81-8.64,22.81-23.2,0-51.86-128.32-53.69-128.32-148.77,0-54.59,37.55-91,104.56-91s103.6,35.84,103.6,104c-9.05,7-76.51,11.83-76.51,1.82,1.42-38.22-15.69-39.89-25.19-39.89-9,0-24.24,2.73-24.24,23.2,0,50.5,130.22,47.77,130.22,149.68C371.64,383.29,325.06,415,265.66,415Z"/></g></g></svg>