<svg xmlns="http://www.w3.org/2000/svg" viewBox="0 0 512 512"><defs><style>.cls-1{fill:red;}</style></defs><title>sublime</title><g id="Layer_2" data-name="Layer 2"><g id="sublime"><rect class="cls-1" width="512" height="512"/><path d="M69.81,118.57,432,3.64S457.67-9.84,451.48,15.1l.93,110.75s4.49,16.26-17.82,20.29l-147.15,46Z"/><path d="M69.81,118.57S55.56,122,59.74,146.3L59,253s-1.24,13.48,24.31,18.9l358.9,115.55s12.08,4.8,10.69-10.07l.15-119s3.41-12.24-18.89-20.29l-146.69-46Z"/><path d="M228,318.39,75.23,365S56.8,365.63,59,400.17s-.16,104.09-.16,104.09,1.55,12.86,19.21,5.43L440.17,394.13s12.85-3.25,2-6.81C431.34,383.91,228,318.39,228,318.39Z"/></g></g></svg>