<svg xmlns="http://www.w3.org/2000/svg" viewBox="0 0 512 512"><defs><style>.cls-1{fill:red;}.cls-2{fill:#fff;}</style></defs><title>swatch</title><g id="Layer_2" data-name="Layer 2"><g id="swatch"><rect class="cls-1" width="512" height="512"/><path d="M32.6,208.74c1.06,1.25,1.74,2.15,2.53,2.95q43.7,44.75,87.48,89.4a6.34,6.34,0,0,0,4.07,1.73q175.07.1,350.12.06c.86,0,1.73-.09,3.08-.16-.76-1-1.15-1.56-1.64-2.06Q453.48,275.29,428.68,250q-19-19.47-38-38.93c-1.36-1.4-2.54-2.49-4.8-2.49q-175,.1-350.11.07C34.86,208.6,34,208.67,32.6,208.74ZM480,98.22h-3.57q-174.69,0-349.38,0a6.42,6.42,0,0,0-5,2.14q-24,24.5-48.19,48.91-19.72,20-39.4,40c-.65.66-1.19,1.41-2.27,2.7h3.69q174.44,0,348.88,0a6.91,6.91,0,0,0,5.45-2.27q19.71-20.19,39.55-40.25Q453.81,125,477.94,100.6C478.49,100,479,99.4,480,98.22ZM33.49,412.48l.26.76h3.37q174.16,0,348.33.05a7.22,7.22,0,0,0,5.67-2.37q22.06-22.57,44.3-45,21.74-22.05,43.47-44.09a27.6,27.6,0,0,0,1.79-2.28h-3.16q-174.91,0-349.83,0a5.85,5.85,0,0,0-4.6,1.91q-12.61,13-25.37,25.81-29.91,30.28-59.84,60.56C36.37,409.31,35,410.91,33.49,412.48Z"/><path class="cls-2" d="M.5,0C.57,1.24.69,2.48.69,3.72q0,251.72,0,503.44a7.56,7.56,0,0,0,.07,2.48,3,3,0,0,0,1.59,1.59,7.52,7.52,0,0,0,2.47.06H508.28c1.24,0,2.48.13,3.72.2-.08.16-.16.47-.25.47-.66,0-1.33,0-2,0H0Q0,257.12,0,2.25A10.64,10.64,0,0,1,.5,0Z"/><path d="M32.6,208.74c1.39-.07,2.26-.14,3.13-.14q175.05,0,350.11-.07c2.26,0,3.44,1.09,4.8,2.49q19,19.5,38,38.93,24.79,25.35,49.56,50.71c.49.5.88,1.1,1.64,2.06-1.35.07-2.22.16-3.08.16q-175.07,0-350.12-.06a6.34,6.34,0,0,1-4.07-1.73q-43.81-44.62-87.48-89.4C34.34,210.89,33.66,210,32.6,208.74Z"/><path d="M480,98.22c-1,1.18-1.47,1.82-2,2.38q-24.1,24.44-48.22,48.88-19.82,20.09-39.55,40.25a6.91,6.91,0,0,1-5.45,2.27q-174.45-.08-348.88,0H32.15c1.08-1.29,1.62-2,2.27-2.7q19.68-20,39.4-40Q97.91,124.76,122,100.31a6.42,6.42,0,0,1,5-2.14q174.69.08,349.38,0Z"/><path d="M33.49,412.48c1.46-1.57,2.88-3.17,4.39-4.7q29.91-30.28,59.84-60.56,12.72-12.87,25.37-25.81a5.85,5.85,0,0,1,4.6-1.91q174.92.06,349.83,0h3.16a27.6,27.6,0,0,1-1.79,2.28q-21.72,22.05-43.47,44.09-22.17,22.48-44.3,45a7.22,7.22,0,0,1-5.67,2.37q-174.17-.09-348.33-.05H33.75Z"/></g></g></svg>