<svg xmlns="http://www.w3.org/2000/svg" viewBox="0 0 512 512"><defs><style>.cls-1{fill:red;}</style></defs><title>terminal</title><g id="Layer_2" data-name="Layer 2"><g id="terminal"><rect class="cls-1" width="512" height="512"/><path d="M475.44,36.56H36.59A36.54,36.54,0,0,0,0,73.19v365.7a36.55,36.55,0,0,0,36.59,36.55H475.44A36.64,36.64,0,0,0,512,438.89V73.19A36.6,36.6,0,0,0,475.44,36.56ZM174.84,64a18.29,18.29,0,1,1-18.31,18.3A18.28,18.28,0,0,1,174.84,64Zm-56,0a18.29,18.29,0,1,1-18.31,18.3A18.32,18.32,0,0,1,118.85,64ZM64,64a18.29,18.29,0,1,1-18.23,18.3A18.27,18.27,0,0,1,64,64ZM475.44,438.89H36.59V128.39H475.44Z"/><path d="M277.83,292.27l-168.1,86.25v-25l142.73-71v-.73l-142.73-71v-25l168.1,85.84Z"/><path d="M402.22,269.13v23.14H312.77V269.13Z"/></g></g></svg>