<svg xmlns="http://www.w3.org/2000/svg" viewBox="0 0 512 512"><defs><style>.cls-1{fill:red;}</style></defs><title>webpack</title><g id="Layer_2" data-name="Layer 2"><g id="webpack"><rect class="cls-1" width="512" height="512"/><path d="M472.62,394.61,265.11,512V420.59l129.3-71.14,78.21,45.16Zm14.22-12.85V136.3l-75.91,43.87V338l75.91,43.8ZM39.38,394.61,246.89,512V420.59L117.53,349.45,39.38,394.61ZM25.16,381.76V136.3l75.91,43.87V338Zm8.91-261.38L246.89,0V88.35l-136.37,75-1.09.61-75.36-43.6Zm443.86,0L265.11,0V88.35l136.37,75,1.09.61,75.36-43.53Z"/><path d="M246.89,399.78l-127.6-70.19V190.64l127.6,73.66Zm18.22,0,127.6-70.12v-139L265.11,264.3ZM127.93,174.59,256,104.2l128.07,70.39L256,248.52Z"/></g></g></svg>